<?xml version="1.0" encoding="UTF-8"?><svg id="_1080_x_1080_px_Logo_Set_1" xmlns="http://www.w3.org/2000/svg" viewBox="0 0 1080 1080"><defs><style>.cls-1{fill:#adadad;}.cls-2{fill:#4f4f4f;}.cls-3{fill:#5c5c5c;}.cls-4{fill:#fff;}.cls-5{fill:#868686;}</style></defs><path class="cls-1" d="M639.26,476.69c2.32,3.69.52,6.05-2.61,8.58-115.91,95.3-142.3,289.63-88.58,424.15,2.23,9.9-2.85,8.67-10.39,9.66-8.85,1.67-17.75,2.38-26.92,3.54-91.96,8.76-189.77-7.08-268.51-57.19-55.93-34.56-97.3-114.56-99.83-179.64-3.2-40.91,2.77-81.8,9.58-121.96,10.74-37.04,24.45-74.45,43.88-107.78,49.15-114.88,149.87-193.69,259.76-248.68,5.94-2.54,13.18-7.61,19.47-6.03,19.32,24.41,49.88,62.16,69.46,87.33,19.03,25.18,31.6,54.26,44.36,82.92,15.49,35.6,34.65,69.75,50.33,105.1Z"/><path class="cls-5" d="M979.47,455.05c4.32,249.68-191.63,417.78-424.34,461.43-2.39.41-4.88.46-6.51-1.01-60.61-140.39-32.41-332.5,86.43-432.42,47.23-75.28,276.47-72.1,344.42-28.01Z"/><path class="cls-2" d="M687.02,155.55c17.02.5,34.54,3.04,51.49,5.44,138.96,13.24,239.37,154.44,241.96,289.2-.13,3.42-1.79,5.03-5.63,3.48-5.31-1.66-10.55-3.52-15.78-5.4-71.25-27.89-190.3-25.73-263.32-3.61-17.91,6.01-33.23,15.07-50.66,29.85-1.7,1.47-3.8,3.6-5.91,3.02-1.6-.63-2.44-2.27-3.23-3.72-3.26-6.67-6.68-13.26-10.2-19.8-33.36-55.16-49.06-119.91-89.39-170.86-16.51-20.68-57.17-72.04-65.01-82,18.44-9.07,40.45-14.97,60.12-21.78,25.56-6.94,50.64-16.87,76.87-20.93,26.24-.98,52.48-4.63,78.7-2.9Z"/><path class="cls-3" d="M592.96,173.06c-2.29,1.86-6.01-1.72-4.28-4.09,1.44-1.95,5.95,2.6,4.28,4.09Z"/><path class="cls-4" d="M843.09,271.57c13.45,11.72,23.8,46.39,21.81,63.65-.77,6.67-15.78,34.8-20.04,41.97-20.74,34.97-53.21,68.4-82.55,96.32-82.23,78.25-194,143.94-296.33,193.42-24.23,11.71-55.33,27.38-80.43,35.65-2.59.85-12.57,2.85-13.7,3.79-2.35,1.96,1.24,15.98,1.99,19.49,1.78,8.31,4.56,20.54,8.82,27.74,6.7,11.3,28.39,25.75,41.25,27.12,45.17,4.82,109.45-28.06,148.88-49.17,90.42-48.42,172.49-122.21,241.64-197.2,3.09-3.35,11.3-12.05,12.93-15.71,8.68-19.57,13.2-43.43,20.48-63.78,8.11-22.68,22.36-49.09,35.81-69.12,5.53-8.23,11.21-18.37,22.2-10.39,12.97,9.42,7.24,35.33,1.88,47.97-10.81,25.5-28.47,52.81-44.89,75.15-6.68,9.09-23.84,26.59-27.76,35.04-6.87,14.82-12.39,48.04-15.28,65-5.84,34.34-14.32,97.44,18.12,121.32,37.47,27.58,81.14-22.34,105.73-46.82,3.2-3.19,10.15-12.68,14.66-13.2,8.35-.96,10.12,5.31,6.02,11.61-5.95,9.13-21.68,19.75-28.13,29.51l-10.84,11.03c-26.94,28.95-73.1,48.44-104.63,14.35-28.47-30.77-23.12-77.82-16.8-115.86,3.09-18.65,7.67-37.05,11.67-55.49-5.58,4.37-9.76,10.09-14.68,15.12-35.06,35.86-67.79,68.73-107.41,100.09-56.69,44.88-130.7,92.73-199.8,115.05-43.45,14.04-86.64,19.84-119.43-18.47-12.93-15.1-14.97-38.02-19.15-56.78-26.76,5.09-52.87,13.92-79.98,17.36-45.73,5.81-89.08-1.51-128.88-25.18-27.85-16.56-41.74-40.98-46.25-72.98-.61-4.3-1.73-18.81,5.02-17.8,5.55.84,2.84,7.28,3,10.5.34,7.02,10.02,32.71,13.46,39.87,14.98,31.21,63.76,49.22,95.94,54.33,46.93,7.45,91.58-9.68,136.94-18.06.38-20.25.73-41.24,8.6-60.16,10.92-26.27,27.74-58.25,41.66-83.14,19.32-34.55,44.65-77.78,69.69-107.55,25.96-30.87,57.07-63.09,86.42-90.9,51.78-49.07,137.82-104.53,210.74-108.88,23.91-1.43,53.49,8.37,71.63,24.17ZM804.97,403.68c12.99-16.97,24.55-35.32,33.55-54.76,3.29-7.11,2.15-12.22.77-19.81-1.73-9.49-6.14-25.58-11.92-33.2-9.2-12.13-35.49-23.29-50.52-24.17-62.64-3.67-153.6,50.28-198.83,91.37-29.74,27.02-61.2,59.65-87.87,89.7-29.77,33.55-49.14,73.29-73.49,110.7-16.5,38.22-44.12,73.51-46.44,116.14-.26,4.77.25,9.64.04,14.42,18.21-3.44,34.19-12.93,50.83-20.36,129.48-57.81,266.56-138.44,362-244.07,7.5-8.3,15.1-17.11,21.87-25.96ZM899.88,406.75c.64-5.72-.47-12.44,0-18.28-.78-.78-1.07-1.67-2.4-.81-.79.51-8.93,12.53-10.18,14.46-13.05,20.19-24.61,43.91-31.71,66.86-2.48,8.03-4.63,16.22-6.61,24.39l8.73-10.53c11.4-15.7,40.17-58.24,42.18-76.1Z"/></svg>