<?xml version="1.0" encoding="UTF-8"?><svg id="_1080_x_1080_px_Logo_Set_1" xmlns="http://www.w3.org/2000/svg" xmlns:xlink="http://www.w3.org/1999/xlink" viewBox="0 0 1080 1080"><defs><style>.cls-1{fill:none;}.cls-2{fill:#ca6c5c;}.cls-3{fill:#176572;}.cls-4{fill:#fff;}.cls-5{fill:#f8a125;}.cls-6{clip-path:url(#clippath);}</style><clipPath id="clippath"><rect class="cls-1" x="0" y="0" width="1080" height="1080"/></clipPath></defs><g class="cls-6"><path class="cls-5" d="M510.77,922.63c9.17-1.16,18.07-1.88,26.92-3.54,7.53-.99,12.62.24,10.39-9.66-53.72-134.52-27.33-328.85,88.58-424.15,3.13-2.53,4.93-4.89,2.61-8.58-15.68-35.36-34.84-69.51-50.33-105.1-12.76-28.66-25.33-57.73-44.36-82.92-19.59-25.17-87.58-133.37-93.52-130.84L325.75-9.41H-9.87v1099.21h779.36l-164.08-96.86-57.34-83.52"/><path class="cls-2" d="M825.8,1089.8l-99.9-9.8s-94.12-60.87-120.49-87.06c-17.04-16.92-45.39-56.33-56.78-77.47-72.54-134.62-32.41-332.5,86.43-432.42,47.23-75.28,276.47-72.1,344.42-28.01l112.12,66.55v568.2h-265.79Z"/><path class="cls-3" d="M1091.6,521.6V-9.41H325.75s44.4,65.01,145.58,210.56c7.23,10.41,51.5,77.54,65.03,100.28,52.6,88.44,56,97.41,89.36,152.58,3.52,6.53,6.95,13.13,10.2,19.8.78,1.45,1.63,3.09,3.23,3.72,2.11.58,4.21-1.55,5.91-3.02,17.44-14.78,32.75-23.84,50.66-29.85,73.02-22.12,192.08-24.27,263.32,3.61,5.23,1.88,10.93,2.69,15.78,5.4,71.01,39.7,116.76,67.92,116.76,67.92Z"/><path class="cls-4" d="M843.09,271.57c13.45,11.72,23.8,46.39,21.81,63.65-.77,6.67-15.78,34.8-20.04,41.97-20.74,34.97-53.21,68.4-82.55,96.32-82.23,78.25-194,143.94-296.33,193.42-24.23,11.71-55.33,27.38-80.43,35.65-2.59.85-12.57,2.85-13.7,3.79-2.35,1.96,1.24,15.98,1.99,19.49,1.78,8.31,4.56,20.54,8.82,27.74,6.7,11.3,28.39,25.75,41.25,27.12,45.17,4.82,109.45-28.06,148.88-49.17,90.42-48.42,172.49-122.21,241.64-197.2,3.09-3.35,11.3-12.05,12.93-15.71,8.68-19.57,13.2-43.43,20.48-63.78,8.11-22.68,22.36-49.09,35.81-69.12,5.53-8.23,11.21-18.37,22.2-10.39,12.97,9.42,7.24,35.33,1.88,47.97-10.81,25.5-28.47,52.81-44.89,75.15-6.68,9.09-23.84,26.59-27.76,35.04-6.87,14.82-12.39,48.04-15.28,65-5.84,34.34-14.32,97.44,18.12,121.32,37.47,27.58,81.14-22.34,105.73-46.82,3.2-3.19,10.15-12.68,14.66-13.2,8.35-.96,10.12,5.31,6.02,11.61-5.95,9.13-21.68,19.75-28.13,29.51l-10.84,11.03c-26.94,28.95-73.1,48.44-104.63,14.35-28.47-30.77-23.12-77.82-16.8-115.86,3.09-18.65,7.67-37.05,11.67-55.49-5.58,4.37-9.76,10.09-14.68,15.12-35.06,35.86-67.79,68.73-107.41,100.09-56.69,44.88-130.7,92.73-199.8,115.05-43.45,14.04-86.64,19.84-119.43-18.47-12.93-15.1-14.97-38.02-19.15-56.78-26.76,5.09-52.87,13.92-79.98,17.36-45.73,5.81-89.08-1.51-128.88-25.18-27.85-16.56-41.74-40.98-46.25-72.98-.61-4.3-1.73-18.81,5.02-17.8,5.55.84,2.84,7.28,3,10.5.34,7.02,10.02,32.71,13.46,39.87,14.98,31.21,63.76,49.22,95.94,54.33,46.93,7.45,91.58-9.68,136.94-18.06.38-20.25.73-41.24,8.6-60.16,10.92-26.27,27.74-58.25,41.66-83.14,19.32-34.55,44.65-77.78,69.69-107.55,25.96-30.87,57.07-63.09,86.42-90.9,51.78-49.07,137.82-104.53,210.74-108.88,23.91-1.43,53.49,8.37,71.63,24.17ZM804.97,403.68c12.99-16.97,24.55-35.32,33.55-54.76,3.29-7.11,2.15-12.22.77-19.81-1.73-9.49-6.14-25.58-11.92-33.2-9.2-12.13-35.49-23.29-50.52-24.17-62.64-3.67-153.6,50.28-198.83,91.37-29.74,27.02-61.2,59.65-87.87,89.7-29.77,33.55-49.14,73.29-73.49,110.7-16.5,38.22-44.12,73.51-46.44,116.14-.26,4.77.25,9.64.04,14.42,18.21-3.44,34.19-12.93,50.83-20.36,129.48-57.81,266.56-138.44,362-244.07,7.5-8.3,15.1-17.11,21.87-25.96ZM899.88,406.75c.64-5.72-.47-12.44,0-18.28-.78-.78-1.07-1.67-2.4-.81-.79.51-8.93,12.53-10.18,14.46-13.05,20.19-24.61,43.91-31.71,66.86-2.48,8.03-4.63,16.22-6.61,24.39l8.73-10.53c11.4-15.7,40.17-58.24,42.18-76.1Z"/></g></svg>