<svg xmlns="http://www.w3.org/2000/svg" viewBox="0 0 1080 1080"><defs><style>.cls-1{fill:#2c6f7b;}.cls-2{fill:#fff;}</style></defs><g id="_1080_x_1080_px_Logo_Set_1" data-name="1080 x 1080 px Logo Set 1"><path d="M627.35,484.29c2,3.24.46,5.33-2.3,7.55-102,83.87-125.23,254.88-77.95,373.26,2,8.71-2.51,7.63-9.14,8.5-7.79,1.47-15.62,2.09-23.69,3.12-80.92,7.71-167-6.24-236.29-50.33C228.76,796,192.36,725.57,190.13,668.31c-2.82-36,2.44-72,8.43-107.33,9.45-32.6,21.51-65.52,38.61-94.85C280.43,365,369.06,295.68,465.76,247.29c5.23-2.24,11.61-6.7,17.13-5.31,17,21.47,43.89,54.7,61.13,76.85,16.75,22.16,27.81,47.75,39,73C596.69,423.12,613.56,453.17,627.35,484.29Z"/><path d="M926.74,465.24C930.54,685,758.11,832.9,553.32,871.31c-2.1.36-4.3.41-5.73-.89-53.34-123.54-28.52-292.6,76.06-380.53C665.21,423.64,867,426.44,926.74,465.24Z"/><path d="M669.38,201.67c15,.45,30.4,2.68,45.31,4.79C837,218.11,925.34,342.38,927.62,461c-.12,3-1.58,4.42-5,3.06-4.67-1.46-9.28-3.1-13.89-4.75-62.69-24.54-167.47-22.65-231.72-3.18-15.77,5.29-29.24,13.26-44.59,26.27-1.49,1.29-3.34,3.17-5.2,2.65-1.41-.55-2.15-2-2.84-3.27-2.87-5.87-5.88-11.67-9-17.42C586.08,415.78,572.27,358.81,536.78,314c-14.54-18.19-50.32-63.39-57.21-72.16,16.23-8,35.6-13.18,52.9-19.17,22.5-6.11,44.56-14.85,67.65-18.42C623.21,203.36,646.31,200.15,669.38,201.67Z"/><path class="cls-1" d="M586.61,217.08c-2,1.64-5.29-1.51-3.77-3.6C584.12,211.77,588.08,215.77,586.61,217.08Z"/><path class="cls-2" d="M806.72,303.78c11.84,10.31,20.95,40.82,19.19,56-.67,5.87-13.89,30.62-17.63,36.93-18.25,30.78-46.82,60.2-72.64,84.77C663.28,550.35,564.91,608.16,474.86,651.7c-21.32,10.31-48.69,24.1-70.78,31.38-2.28.75-11.07,2.5-12.06,3.33-2.07,1.73,1.09,14.06,1.75,17.16,1.57,7.31,4,18.08,7.77,24.41,5.89,9.95,25,22.66,36.3,23.87,39.75,4.24,96.32-24.69,131-43.27C648.42,666,720.64,601,781.5,535c2.72-2.95,10-10.6,11.38-13.83,7.64-17.22,11.62-38.22,18-56.12,7.14-20,19.67-43.2,31.52-60.83,4.86-7.25,9.86-16.17,19.53-9.15,11.41,8.29,6.37,31.09,1.65,42.21-9.51,22.45-25.06,46.48-39.5,66.14-5.87,8-21,23.4-24.43,30.84-6,13-10.9,42.27-13.44,57.2-5.15,30.23-12.6,85.76,15.94,106.77,33,24.27,71.4-19.66,93-41.2,2.82-2.81,8.94-11.16,12.9-11.62,7.35-.84,8.91,4.67,5.3,10.22-5.24,8-19.08,17.38-24.76,26l-9.53,9.7C855.4,716.82,814.79,734,787,704c-25-27.08-20.35-68.48-14.79-102,2.72-16.41,6.74-32.6,10.27-48.83-4.91,3.85-8.6,8.88-12.92,13.31-30.86,31.56-59.66,60.48-94.53,88.08-49.89,39.5-115,81.61-175.82,101.25C461,768.17,423,773.27,394.15,739.56c-11.37-13.29-13.17-33.45-16.85-50-23.55,4.49-46.53,12.25-70.39,15.28-40.24,5.11-78.38-1.33-113.41-22.15-24.51-14.58-36.73-36.07-40.71-64.23-.53-3.79-1.52-16.56,4.42-15.66,4.88.73,2.5,6.4,2.64,9.24.3,6.17,8.82,28.79,11.84,35.09,13.18,27.46,56.11,43.31,84.43,47.81,41.3,6.55,80.6-8.52,120.51-15.89.33-17.82.64-36.3,7.57-52.94,9.61-23.12,24.41-51.26,36.66-73.17,17-30.4,39.3-68.45,61.33-94.65,22.84-27.17,50.22-55.52,76.05-80,45.56-43.17,121.28-92,185.45-95.81C764.74,281.25,790.76,289.87,806.72,303.78ZM773.18,420a259.25,259.25,0,0,0,29.53-48.18c2.89-6.26,1.89-10.75.68-17.43-1.52-8.35-5.41-22.51-10.49-29.22-8.1-10.68-31.23-20.49-44.46-21.27-55.13-3.23-135.17,44.25-175,80.41-26.17,23.77-53.85,52.49-77.32,78.93-26.19,29.52-43.24,64.5-64.67,97.42-14.52,33.63-38.83,64.69-40.87,102.2-.23,4.2.22,8.49,0,12.69,16-3,30.09-11.38,44.73-17.91,113.95-50.88,234.58-121.83,318.57-214.79C760.53,435.57,767.22,427.82,773.18,420Zm83.52,2.71c.57-5-.41-10.95,0-16.09-.68-.68-.94-1.47-2.11-.72-.7.46-7.86,11-9,12.73C834.14,436.43,824,457.3,817.72,477.5c-2.19,7.07-4.07,14.27-5.82,21.47l7.69-9.27C829.62,475.89,854.94,438.45,856.7,422.74Z"/></g></svg>