<svg xmlns="http://www.w3.org/2000/svg" viewBox="0 0 1080 1080"><defs><style>.cls-1{fill:#f79d26;}</style></defs><g id="_1080_x_1080_px_Logo_Set_1" data-name="1080 x 1080 px Logo Set 1"><path class="cls-1" d="M874.87,270c14.53,12.65,25.71,50.09,23.56,68.73-.84,7.21-17,37.58-21.64,45.32-22.4,37.77-57.46,73.87-89.15,104-88.79,84.51-209.5,155.44-320,208.88-26.17,12.65-59.76,29.57-86.86,38.5-2.8.91-13.58,3.07-14.8,4.09-2.53,2.12,1.34,17.26,2.15,21.05,1.92,9,4.92,22.19,9.53,30,7.23,12.21,30.65,27.81,44.55,29.29C471,825.05,540.4,789.54,583,766.74c97.64-52.29,186.27-132,260.94-213,3.34-3.62,12.21-13,14-17,9.38-21.13,14.26-46.9,22.12-68.88,8.76-24.49,24.14-53,38.67-74.64,6-8.89,12.11-19.83,24-11.22,14,10.17,7.82,38.15,2,51.8-11.67,27.54-30.75,57-48.47,81.16-7.21,9.81-25.75,28.71-30,37.84-7.42,16-13.38,51.88-16.5,70.2-6.31,37.08-15.46,105.22,19.57,131,40.46,29.79,87.62-24.13,114.17-50.56,3.46-3.45,11-13.69,15.83-14.25,9-1,10.94,5.73,6.5,12.54-6.42,9.85-23.41,21.32-30.38,31.86l-11.7,11.91c-29.1,31.26-78.94,52.31-113,15.5-30.74-33.24-25-84-18.15-125.12,3.34-20.13,8.28-40,12.6-59.92-6,4.72-10.54,10.9-15.85,16.33-37.86,38.72-73.21,74.22-116,108.09C652.1,748.93,572.19,800.61,497.57,824.71c-46.93,15.16-93.57,21.42-129-20-14-16.31-16.17-41-20.68-61.32-28.9,5.51-57.1,15-86.37,18.75-49.39,6.28-96.2-1.63-139.18-27.19-30.08-17.88-45.07-44.25-49.95-78.81-.65-4.65-1.87-20.32,5.42-19.22,6,.9,3.07,7.86,3.24,11.34.37,7.58,10.82,35.33,14.53,43.06,16.18,33.7,68.86,53.15,103.61,58.67,50.68,8,98.9-10.46,147.88-19.5.4-21.87.79-44.54,9.28-65,11.8-28.37,30-62.91,45-89.79,20.87-37.31,48.22-84,75.26-116.15,28-33.34,61.63-68.13,93.32-98.16,55.92-53,148.83-112.88,227.58-117.59C823.35,242.35,855.29,252.93,874.87,270ZM833.72,412.66A318.31,318.31,0,0,0,870,353.53c3.55-7.68,2.32-13.2.83-21.39-1.86-10.25-6.63-27.62-12.87-35.85-9.94-13.1-38.32-25.15-54.56-26.1-67.65-4-165.86,54.3-214.71,98.67-32.12,29.17-66.09,64.41-94.89,96.86-32.14,36.22-53.06,79.15-79.36,119.54-17.82,41.27-47.65,79.38-50.15,125.42-.28,5.15.27,10.41,0,15.57,19.66-3.71,36.92-14,54.89-22C559,641.84,707,554.77,810.09,440.69,818.19,431.73,826.4,422.22,833.72,412.66ZM936.21,416c.69-6.18-.51-13.43,0-19.75-.84-.83-1.16-1.8-2.59-.87-.86.55-9.65,13.53-11,15.62-14.1,21.79-26.58,47.41-34.25,72.2-2.68,8.67-5,17.51-7.14,26.34l9.43-11.37C903,481.2,934,435.26,936.21,416Z"/></g></svg>