<?xml version="1.0" encoding="UTF-8"?><svg id="_1080_x_1080_px_Logo_Set_1" xmlns="http://www.w3.org/2000/svg" viewBox="0 0 1080 542.88"><defs><style>.cls-1{fill:#252f42;}</style></defs><path class="cls-1" d="M655.09,345.13l-24.4,33.93c-2.14,1.41-2.72-1.63-1.93-3.16,8.22-12.45,19.96-23.6,26.02-37.28,1.25-2.83,3.56-13.29,6.09-13.97.84-.22,1.69.23,2.06.91,1.6,2.93-3.6,8.69-4.13,12.2-.45,2.98-1.17,10.34-.89,13.18,2.33,20.34,24.88-6.34,31.29-9.6.43-.07,1.07.09,1.43.31,1.71,1.03.27,13.52,5.06,15.46,5.38,2.18,14.06-10.54,20.38-9.93,4.82.47,6.48,10.68,11.1,12.27,2.51.02,10.33-10.14,14.37-11.74,2.58-1.02,14.07-1.93,17.54-2.14,1.28-.08,1.65-.44,2.43.47,1.48,1.73,1.27,8.89,1.27,8.89,4.04,4.92,15.97-11.49,20.78-8.2,1,.63,1.26,5.09,1.2,6.37,2.18-.93,3.41-2.6,5.84-3.44,12.65-4.58,12,7.88,20.27,6.85.91-.17,9.56-5.28,10.84-6.15,4.53-3.11,5.92-6.74,12.54-7.61,5.05-.67,15.36.67,13.79,7.46l-5.73,16.25c5.61-5.42,10.44-11.51,16.5-16.48,1.27-1.04,7.73-6.72,9-5.57.17.94.03,1.5-.45,2.33-1.06,1.84-8.07,6.54-10.29,8.63-5.24,4.92-15.23,14.96-19.31,20.44-8.14,10.95-12.16,32.32-20.77,42.02-3.39,3.82-8.31,5.22-9.55-.89-2.02-10,3.93-18.16,10.24-25.38,4.65-5.33,13.38-11.83,16.95-17.08,2.33-3.43,9.15-18.48,10-22.35.38-1.74.29-3.34-1.98-2.8-5.59,1.34-10.51,6.23-17.22,5.78-1.33-.09-4.07-1.28-4.7-1.13-1.5.34-5.1,3.81-6.99,4.63-10.02,4.34-12.05-7.06-18.21-7.53-4.77-.36-9.88,7.72-12.75,6.1-1.26-1.31-.06-8-1.61-8.04-4.37,2.05-12,9.88-16.81,9.49-1.18-.09-4.21-1.36-4.24-2.6l-.2-7.9c-6.17,1.08-12.37-.13-18.03,2.9-4.37,2.34-9.85,10.91-14.13,11.2-6.23.42-9.24-11.83-11.67-12.44-4.28-1.08-13.41,12.79-21.82,9.8-3.1-1.1-5.01-8.12-5.27-10.98-.05-.59,1.01-3.85-.34-3.78-.44.02-5.31,4.92-6.32,5.74-7.17,5.96-23.25,19.03-27.04,2.98,0,0-.21-8.41-.21-8.41ZM842.07,346.56c-2.35-3.1-10.94-.87-13.23,1.51l-3.27,4.52,16.5-6.03ZM818.27,395.31c-4.59,5.57-10.71,14.07-8.04,21.43,1.73,4.77,5.55-1.88,6.74-3.93,3.57-6.19,6.14-14.06,9.14-20.64.37-1.28,5.29-8.44,3.74-8.58-3.81,3.91-8.11,7.53-11.57,11.72Z"/><path class="cls-1" d="M528.61,335.59c0,.07.03,1.05.03,1.33,0,.25-.08.11-.31.16-3.46.27-9.03.72-12.23.97-.69.05-1.25.1-1.78.14-.11,0-.12-.01-.28.14-4.17,4.01-9.49,14.45-6.36,19.72,1.2,2.24,4.09,2.73,6.49,2.19,1.59-.23,3.53-1.05,4.86-1.13.82-.09.51,1.13.2,1.51-2.23,2.38-8.2,2.31-10.89.91-3.75-2.02-4.57-6-3.64-10.16.09-.36,0-.56-.25-.55-1.16-.06-3.19,2.37-4.36,3.52-5.16,4.19-14.01,10.34-20.62,6.25-3.52-2.77-1.83-5.26-7.76-4.09-2.72.57-6.07.38-8.38-.77-1.39-.53-2.73-1.52-4.36-1.99-7.14,5.49-16.98,12.71-26.53,8.99-2.99-1.24-5.07-3.95-5.38-7.05-.05-.38-.05-.91-.08-1.15-.02-.11-.06-.13-.12-.12-1.18.2-7.7,4.34-10.46,5.9-3.06,1.55-20.09,8.61-19.28.46,1.19-6.2,13.93-12.28,20.28-12.21,1.59.03,3.3.46,4.65.98,2.52.86,3.73,2.17,5.63.46.5-.38,1.05-.71,1.65-.56.22.06.41.17.58.31,1.23,1.24-.08,4.92.54,6.97,3.31,9.72,21.34-.03,25.34-4.07,1.97-1.74.66-4.44,2-6.51,1.19-2.19,3.8-1.87,4.87.09.87,1.94-2.19,3.67-1.51,5.41,1.73,2.76,6.35,3.07,9.09,2.57,2.12-.29,4.09-.77,5.96-.35.92.22,1.55.77,2.08,1.44,1.53,1.93,2.37,4.87,7.51,4.15,4-.57,9.56-3.87,14.25-8.05,4.59-4.12,8.37-9.12,8.68-13.12-.03-.13-.16-.22-.35-.28-4.45-1.21-10.16,1.43-13.96-1.23-.38-.24-.68-.8-.31-1.13.11-.12.24-.18.36-.21.68-.09,3.03.59,4.64.8,1.83.17,4.08.04,6.18.01,2.47-.17,4.53,0,5.19-.65,1.56-2.23,5.7-11.87,7.13-12.88.36-.24,1.3-.25,1.82-.2.28.02.58-.04.72.1.94,4.6-2.52,8.82-4.26,12.9-.08.17-.13.29-.12.33,1.03.08,10.7-.3,12.84-.29v.04ZM423.67,351.93c-4.59-1.81-9.86-.76-14.26,1.1-5.26,2.24-10.25,6.72-9.22,8.39.59.97,3.23.98,8.98-.92,3.71-1.23,8.65-3.82,11.95-5.94.84-.54,2.02-1.13,2.56-1.88.19-.24.17-.54.08-.68l-.08-.06Z"/><path class="cls-1" d="M594.76,357.85c1.47.56,5.54-4.68,6.65-5.41.67-.49,1.88-.13,1.78.76-.1,2.09-5.4,5.95-6.95,7.09-.07.08-.1.18-.08.33.07.4.24,1.37.33,1.6.26.29,1.15.08,1.56.14.31,0,.46,0,.49.12.02.27-.14,1.79-.22,2.28-.94,1.39-3.02.52-3.89-.58-.83-.88-1.36-1.74-1.68-1.61-2.35.73-5.36,2.44-7.66,2.9-11.34,2.45-16.92-5.41-13.09-14.09,1.64-3.77,4.71-7.17,8.08-9.65,2.3-1.87,6.86-4.2,7.54-6.85.55-2.83-.09-7.5,2.73-9.31,5.16-3.09,8.52,2.95,5.7,7.54-.98,1.64-3.15,2.64-4.4,4.04-2.8,3.75,3.16,16.2,3.07,20.62l.04.08ZM593.94,327.79c-2.15-.5-3.44,5.33-3.08,5.68,2.63-.64,3.97-3.27,3.08-5.68ZM587.79,340.17c-.13-.11-.88.23-1.82.86-5.6,3.84-9.96,7.41-11.95,13.14-1.69,5.39,1.28,9.49,7.23,9.39,3.44-.03,7.5-1.69,10.53-3.55-.88-5.43-3.01-14.85-3.96-19.84h-.02Z"/><path class="cls-1" d="M691.16,333.85c2.18,0,.97-3.45-.85-3.45-2.18,0-.97,3.45.85,3.45h0Z"/><path class="cls-1" d="M761.8,337.08c2.18,0,.97-3.45-.85-3.45-2.18,0-.97,3.45.85,3.45h0Z"/><path class="cls-1" d="M986.77,304.76l.05,2c-1.6-.04-3.24.2-4.85.14-92.12-3.11-184.01-3.05-276.09-2.62-77.93.37-155.45-.59-233.44-1.18-48.12-.36-95.76.92-143.83.55-13.34-.1-26.63.09-39.95-.49l-.04-1.5,38.91-.5c1.03-.09,2.06.44,3.05.44,38.92-.06,77.53-.76,116.38-.88,75.41-.23,150.5,1.99,225.81,1.33,99.77-.87,200.08-1.77,300.02,2.54,4.6.2,9.37-.02,13.98.16Z"/><path class="cls-1" d="M279.62,252.48c-.3.99-.75,2.04-1.13,2.93-5.42,12.16-12.21,23.88-17.36,36.13-.43,1.02-.99,2.07-1.23,3.19-.07.35-.07.65.02.89,0,.02-.01.04-.02.06-.1.55-.07,1.02.26,1.23.28.13.6.08.91-.03.01,0,.02.03.03.03.64.29,1.51-.3,1.94-.63.37-.34.52-.67.79-1.13,1.17-2.11,3-6.56,4.2-9.39,2.51-5.62,5.3-11.12,8.15-16.6.81-1.47,1.59-3.03,2.48-4.44,2.3,1.21,4.05,1.82,6,1.72,1.09.07,2.2-.08,3.5-.49,5.98-1.79,10.64-7.89,16.46-10.88,3.86-1.28,8.55-1.45,12.41-2.65,4.62-1.4,8.98-3.49,13.43-5.31.42-.17.84-.34,1.27-.51.26-.09.53-.22.79-.32.03.02.07.05.1.07-.03.07-.05.14-.07.21-.59,2.41-1.54,3.92-1.35,5.74-.07.74.01,1.49.37,2.36,1.44,3.53,4.42,5.24,7.85,5.07,1.4.07,2.89-.18,4.4-.76,5.89-2.08,11.26-6.54,15.96-10.36,10.6-8.32,19.99-19.03,30.93-26.87-2.82,7.21-19.21,38.56-18.35,43.36-.15,1.28.18,1.85,1.13,1.43,0,0,.01-.01.02-.02.19.19.49.21.92.02.54-.35,1-1.07,1.28-1.62.97-1.98,3.47-10.37,4.99-12.04,1.01.47,2.14.54,3.29.51.98.04,1.98-.06,2.95-.09.8.03,1.55.15,2.22.49,1.17.98,2.66,3.52,3.82,4.77,4.34,4.52,8.06,6.16,11.8,6,4.71.19,9.38-2.62,15.29-6.27,8.4-4.96,15.05-12.11,22.6-16.75.08-.04.16-.08.24-.11.08.07.14.15.17.27.8,3.78,1.25,7.61,1.27,11.47,0,.48-.01.96-.03,1.44-.01.18-.05.34-.14.44-2.22,1.67-8.13,6.09-7.55,9.26-.12.71,0,1.39.47,1.99,1.06,1.35,2.2,1.76,3.29,1.58,1.92.33,3.81-1.42,4.95-3.53,1.52-2.45,1.3-5.19,2.92-7.31,11.11-6.3,21.27-13.94,30.84-22.18-3.08,8.09-12.35,32.35-12.56,32.91.13.01.24,0,.36,0-.21.54-.34.88-.36.94.36.03.68,0,.97-.07,0,.02-.02.06-.03.07,3.27.3,3.7-4.04,5-6.05,1.96-3.1,5.6-7.54,8.15-10.32,2.73-2.71,7.18-7.91,11.47-8.29.11,0,.21,0,.32.02,1.27.49,1.76,1.46,1.86,2.57-.08.95-.34,1.94-.6,2.79-.78,3.53-4.45,9.4-4.17,13.73-.07,1.34.15,2.57.86,3.59.87.64,1.97.86,3.23.76,6.5.42,18.37-9.73,23.05-12.75-.73,2.48-1.03,4.38-.95,5.79-.17,3.41,1.38,4.58,3.92,4.39,3.45.28,9.43-2.82,15.41-6.18,4.85-2.69,9.1-5.7,13.58-8.37.12.69.18,1.43.19,2.2-.02,1.67-.17,3.44-.14,5.15-.05,3.79.48,7.38,4.71,8.89.89.27,1.92.36,3.01.31,4.39.18,10.23-2.27,11.45-5.79.07-.34-.13-.56-.43-.67-.21-.03-.42-.03-.63-.02.04-.08.08-.17.11-.25.07-.34-.13-.56-.43-.67-2.21-.35-4.29,2.1-6.47,2.92-3.08,1.31-5.13,1.19-6.47.24-2.05-2.87-1.35-8.78-.71-12.55.11-1.03.56-1.9.65-2.79-.03-.72-.66-1.32-1.3-1.84-.43-.6-1.17-1.11-1.72-1.56-20.2-12.73-34.25,10.95-52.08,18.96-1.89.78-4.63,2.08-6.11,1.7-.16-.6-.09-1.48.35-2.79.94-4.54,7.38-15.63,2.66-18.83-.82-1.21-2.38-1.92-5.02-1.81-3.91.8-9.33,6.21-11.94,9.17-.43.62-1.07,1.55-1.69,2.33,2.89-8.05,9.19-24.68,9.4-25.39.32-.57.75-1.18,1.26-1.85,3.53-4.72,10.88-11.16,11.19-15.41.16-1.41-.33-3.3-1.59-4.01-.51-.82-1.33-1.37-2.48-1.2-1.83.53-4.21,4.07-5.46,5.97-2.78,4.52-3.66,10.08-5.95,14.63-3.96,6.86-27.41,25.06-35.15,27.79-.05.02-.1.03-.15.04-.38-2.96-1.51-11.56-1.73-14.26.92-2.04,5.29-5.59,6.77-8.6.99-1.52.42-3.17-.9-4.03-.6-.93-1.74-1.57-3.1-1.53-2.92.2-5.48,3.95-6.23,6.85-.19.6-.2,1.29-.17,2.01-.04.78.05,1.63.08,2.45-.03.53-.12,1.04-.35,1.48-.74,1.17-4.96,4.58-7.34,6.48-3.41,2.75-7.96,6.1-14.2,10.17-8.46,5.22-16.47,11.2-24.25,3.95-.32-.35-.65-.71-.97-1.11-.94-1.27-2.18-2.64-2.71-4.08.05-.05.16-.16.21-.21,6.06-2.91,12.57-5.63,16.36-11.09,1.73-2.22,2.82-5.82,1.05-7.9-.21-.25-.45-.44-.7-.61-.08-.11-.15-.23-.24-.33-4.66-5.54-20.56,9.06-24.24,11.69-.19.16-.45.32-.72.46,1.36-3.16,9.69-22.4,12.8-29.63,3.64-4.44,19.2-17.96,12.92-23.48-.05-.02-.11-.02-.16-.03-.21-.32-.46-.63-.78-.92-2-.67-5.52,3.5-7.38,6-4.14,5.29-4.94,12-8.86,17.34-10.6,11.49-24.75,22.97-36.94,32.99-4.94,3.66-10.26,8.03-15.37,9.07-1.96.33-3.71-.08-4.96-1.02-.69-.92-1.05-2.1-.94-3.47.58-9.21,9.32-9.29,15.51-13.5,1.87-1.23,4.77-3.12,5.13-4.84-.18-.94-.75-1.7-1.52-2.26-1.33-1.88-4.49-2.55-6.73-1.57-5.28,2.02-8.04,9.41-11.63,11.91-5.85,3.19-17.22,6.75-21.55,8.09-1.18.32-3.21.86-4.61,1.13,1.11-2.22,3.36-4.09,4.53-6.34,2.6-4.54,3.55-9.65.49-11.87-1.21-1.66-3.66-2.5-7.8-1.84-2.7.37-4.92,2.32-7.34,3.48,1.96-3.21,4.99-5.92,7.14-9,2.24-3.19,6-8.48,6.04-11.54-.07-1.46-.98-3.04-2.29-4.1-1.09-1.32-2.7-2.28-4.4-2.17-1.98.3-2.67,1.37-4.17,3.05-5.09,6.63-10.73,17.37-13.4,23.13-1.63,3.84-4.04,9.55-5.3,11.37-1.15,1.66-3.17,7.43-3.17,7.43ZM388.35,249.66c-.51-.32-1.16-.81-1.75-1.31-.15-.17-.28-.34-.36-.5-.06-.97,3.22-3.4,5.17-4.8,2.89-2.07,11.73-8.17,15.23-8.73.96.16,1.59.79,1.76,1.66-.02.1-.02.21-.05.31-.43,1.97-1.75,4.1-3.07,5.54-2.45,2.51-13.78,9.38-16.92,7.84ZM382.31,250.29c.26-.49.68-.77,1.15-.87.67.14,1.32.54,1.67,1.1-.6.01-1.89-.02-2.82-.23ZM404.92,198.76c.41-.54,2.25-3.02,3.5-3.72.01.02.03.04.04.06-.61,2.52-4.76,8.32-7.35,10.92.86-2.58,2.21-5.12,3.81-7.25ZM350.59,232.26c.46.09.85.32,1.14.73.06.09.11.17.15.25-.09.16-.23.32-.4.51-.68.77-6.37,3.95-9.1,5.02,1.38-2.45,5.47-6.09,8.21-6.5ZM307.57,211.51l.1.08c.62.6.92,1.29,1.01,2.01-.29,2.57-2.75,5.49-3.9,7.39-3.92,5.82-8.92,11.42-14.05,16.47.05-.15.1-.29.15-.43,2.31-5.23,3.99-8.24,7.89-15.28,1.44-2.1,5.05-9.81,8.13-10.59.23.06.45.17.67.34ZM301.8,252.01c-.17.05-.37.09-.39.09-.41.04-12.41,1.27-17.74,1.82,1.68-6.12,9.71-11.91,14.97-15.33,2.72-1.62,7.24-4.71,11-4.96.95.07,1.83.35,2.6.94l.06.06c.47.59.71,1.31.78,2.12-.39,5.57-7.53,14.21-11.29,15.27ZM280.44,262.08c-.46-.78-.38-1.77.68-2.95,3.05-2.69,11.44-2.63,16.46-3.37-.49.86-1.79,1.38-2.59,2.03-2.37,1.72-6.77,4.77-9.61,5.19-1.57.26-3.64-.08-4.93-.9ZM450.24,228.28c-.51,2.19-3.67,5.99-4.88,6.25-.32-1.98,1.7-6.33,4.21-6.77.02,0,.03,0,.05,0,.33.08.52.27.62.53ZM439.53,264.58c-.14-1.56,2.83-4.41,4.14-5.2-.01.05-.03.1-.03.14-.25,1.58-1.99,5.62-4.11,5.06ZM518.76,261.7c-.34-1.29.22-3.14.43-4.29,2.08-8.19,11.46-13.99,20.47-14.19,1.85.04,3.68.31,5.41.87,1.36.47,2.76,1.06,3.89,1.92-.23.24-.55.44-.74.61-2.36,2.16-8.34,5.55-12.04,7.64-2.23,1.25-10.81,5.85-15.36,7.13-.85.25-1.57.35-2.07.32ZM495.31,209.35c-.39,2.15-4.01,6.79-5.78,8.72,1.12-3.02,2.43-6.56,4.47-8.55.35-.34.7-.58,1.02-.71.14.11.23.29.29.54Z"/><path class="cls-1" d="M1006.13,255.64s.06-.04.08-.06c.06-.06.1-.06.11-.22,0-1-1.31-.66-2.09-.47-5.24.88-20.74,13.02-25.71,10.12-.76-1.27-.86-3.48,0-6.99.34-2.15,1.74-5.68.78-7.16-.19-.12-.43-.18-.68-.23-.05-.27-.14-.51-.27-.72-.55-.33-1.39-.38-1.99-.09-5.67,4.32-10.76,9.15-17.05,12.74-5.58,3.15-8.48,3.84-9.93,3.16-1.29-2.6,1.1-8.78-.5-11.75-.22-.21-.47-.36-.73-.46-.06-.17-.13-.33-.22-.48-.86-.83-2.08-.67-3.29-.56-1.84.23-3.93.81-5.76,1.13-.94.17-1.8.27-2.53.23.07-.18.14-.36.2-.5.52-1.18,1.27-2.33,1.06-3.66-.16-.9-.6-1.44-1.19-1.7-1.6-3.32-8.91,1.42-8.23,4.77-.21,1.1.23,2.15,1.76,2.86.24.07.38.17.49.29-.82,1.58-4.54,4.08-5.86,4.93-2.53,1.66-5.9,3.14-8.64,3.05-.56-.08-1.02-.27-1.41-.52-1.77-2.68-.46-8.24-1.28-11.13-.17-.96-.73-1.68-1.49-2.24-.99-1.42-3.05-2.08-4.83-2.52-7.26-1.46-13.16-.78-19.11,2.65-1.74,1.14-3.83,2.93-5.61,3.98-1.92.82-4.19.9-6.32,1.23-6.14.49-11.56,1.63-17.39,2.91-.02,0-.05,0-.07.01.73-2.35,1.15-4.21-.49-5.03-.31-.7-1.02-1.17-2.38-1.34-4.57-.56-9.33.56-13.01,3.32-1.63,1.15-4.15,2.92-5.97,4.2.01-.03.03-.05.04-.08,2.43-4.75,6.03-11.9,8.56-16.77,1.87-3.49,18.42-22.08,14.28-24.46-.1-.01-.21,0-.32.02-.07-.42-.27-.76-.62-.96-2.32-.29-6.68,6.07-8.56,9.04-2.72,4.09-4.08,9.41-6.62,13.59-5.47,7.64-26.62,20.14-38.09,24.56-4.44,1.67-7.1,1.79-8.54.94-1.62-2.82,1.37-9.13,4.3-14.01.66-1.43,2.53-3.87.45-4.36-.04-.53-.4-.92-1.37-1.01-2.94-.16-9.5,5.47-13.87,4.11.08-.57.6-1.36.96-2.33,1.21-2.5,2.16-5.42.07-6.59-.46-.89-1.51-1.48-3.5-1.47-2.96-.03-4.3,3.78-4.12,6.4-.04.67,0,1.31.13,1.84.19.95,1,1.56,1.58,2.27.11.13.18.28.23.43-1.02,3.76-12.02,10.88-14.27,12.16-4.02,1.99-9.49,3.36-12.35,1.29-.78-1.09-1.15-2.68-.9-4.92-.22-1.84,1.87-7.06,3.17-10.72,0,0,.01,0,.01,0,.79-2.81.72-1.49.79-5.17,0-.46-.05-.47-.45-.82l-.08-.08c-.13-.07-.28-.13-.41-.2-.02-.28-.11-.35-.45-.66l-.08-.08c-2.75-1.6-7.29-2.15-10.47-2.31-6.16.22-16.1,3.93-21.34,7.22-9,5.54-17.29,17.18-29.09,16.52-3.58-.3-7.62-1.82-10.41-4.32-.86-.95-1.54-2.01-1.96-3.18-1.46-4.14-1.77-11.41,1.79-14.86,11.39-8.93,20.45-22.15,30.19-32.77,2.48-2.8,4.58-5.53,6.86-8.65,6.61-8.84,49.91-64.74,39.31-73.63-2.05-2.4-5.75-4.32-11.39-3.26-11.84,2.22-44.5,48.19-49.7,59.14-.83,1.68-1.55,3.58-2.32,5.25-.13.2-.38.08-.8.04-23.82-6.6-52.77,25.35-62.72,43-3.8,7.1-6.06,14.71-8.68,22.23-.35.76-.4,1.84-1.13,2.32-4.93,2.13-9.93,4.1-15.16,5.45-6,1.6-12.86,3.01-17.35,5.01-.44.21-1.05.39-1.27.84-.1.25-.15.58.03.78.02,0,.06,0,.08.02-.04.05-.09.09-.12.15-.1.25-.15.58.03.78.21.08.63.09,1.18.05.42.06,1.16,0,2.12-.14,4.02-.64,10.34-2.38,14.55-3.55,5.06-1.39,9.99-3.38,15.05-4.85.32-.09.69-.2,1.05-.3-.1.73-.13,1.41-.1,2.04-.27,5.93,4.39,7.91,9.73,7.78,3.85.09,8.2-1.02,11.37-2.6,10.96-4.38,20.06-11.86,29.57-18.48,1.08-.74,2.24-1.55,3.36-2.28-.02,1.25-.06,2.53-.05,3.8-.04,5.12.43,10.3,5.27,13.37,3.94,2.78,8.89,4.12,13.77,3.98,5.04.06,10.09-1.44,13.98-4.56.72-.5,1.45-.97,2.24-1.32,0,.18.03.35.04.52-.02.12-.04.23-.05.34.04,3.48,2.32,4.66,5.62,4.52,7.46.33,21.62-7.64,25.29-9.89,1.52-.85,6.02-3.81,8.17-4.75-.77,3.1-2.22,6.57-2.07,9.79-.04.9.02,1.79.25,2.66,1.67,3.58,4.65,4.83,8.1,4.7,6.97.28,16.26-5.82,20.2-9.84,1.84-1.97,4.74-5.41,5.22-5.75.08-.02.17-.02.25-.03,1.17.13,2.47.61,3.52.59.14,0,.27-.02.41-.03.18.02.36.03.54.03,2.89.03,5.65-1.8,8.38-2.76-.31,1.2-.98,2.24-1.63,3.68-1.47,2.81-3.16,6.38-2.96,9.17-.16,2.48.85,4.54,4.31,5.25.63.09,1.27.11,1.92.08,4.48.19,9.49-2.34,13.04-3.9,10.14-4.67,17.76-10.69,26.75-16.59-3.33,6.24-6.4,12.85-10.3,18.71-1.26,1.61-3.35,2.82-3.13,5.06,0,.05.01.11.02.16-.04.25-.05.51-.02.79.04.46.14,1.1.6,1.25,1.51.59,3.06.8,4.62.75,2.69.11,5.41-.64,7.94-1.67,4.89-1.76,9.18-5.97,13.48-8.96,1.1-.75,2.1-1.35,3.17-1.78,1.9-.72,11.86-2.89,18.7-4.06.87-.11,3.5-.62,5.12-.74.03,0,.06,0,.09.01-.82,1.86-2.34,4.05-2.08,6.01-.04.37-.05.74.02,1.1.86,2.43,2.75,3.16,4.97,3.02,3.66.24,8.63-2.51,11.22-3.96,5.71-3.15,10.55-7.5,16.02-10.99.52,1.19.63,2.58.65,4.03,0,.61-.01,1.23,0,1.84-.03,3.03.07,6,3.08,7.51,1.21.57,2.51.77,3.84.69,6.2.3,13.5-5.98,17.2-9.72.34-.26.63-.15,1.85-.33,2.72-.32,7.93-.93,10.04-1.18.02.22.04.45.05.68-.06,1.99-.47,4.17-.4,6.2-.05,1.89.19,3.7,1.37,5.19.91.9,2.15,1.2,3.57,1.11,5.68.44,15.31-7.23,18.2-9.36,1.66-1.22,5.63-4.98,7.53-5.91-.42,2.59-1.89,5.05-1.74,7.75,0,.08.01.15.01.22-.01.24-.03.48-.01.72.2,4.89,2.39,6.2,5.24,6.02,2.63.18,6.06-1.3,9.04-2.48,2.33-.95,16.41-7.67,17.89-8.97.06-.06.1-.06.11-.22,0-.64-.54-.73-1.14-.66ZM783.03,247.78s-.04-.02-.06-.03c-.9-1.69-.21-4.65,1.48-5.07.5.13.75.46.85.91-.28,1.79-1.84,4.19-2.27,4.2ZM717.26,262.34c-1.16-2.42,2.38-7.42,4.23-9.45,3.75-4.3,9.78-6.99,15.98-9.26,3.52-1.22,6.91-2.13,10.33-2.22,2.5.05,5.02.56,7.63,1.74.14.06.25.27.31.52-.21.73-1.31,1.92-1.93,2.39-2.47,1.88-7.09,4.37-10.66,6.66-6.13,3.6-16.19,9.32-23.22,10.02-1.2.06-2.07-.09-2.67-.4ZM628.94,264.13c-.17-.23-.34-.47-.48-.73-.88-1.86-.91-5.41.17-6.75.53-.6,1.3-.89,2.67-1.5,3.7-1.57,8.71-3.09,12.56-4.68,14.64-6.41,27.77-14.95,39.78-25.01-.87,3.38-2.48,9.7-3.11,12.1-13.31,10.53-27.01,23-44.05,27.58-2.62.52-5.55.5-7.53-1.01ZM672.06,195.19c4.73-2.7,12.47-6.66,19.04-6.84,1.88.06,3.64.45,5.19,1.32.16.18.25.38.3.6-.05.29-.12.57-.18.82-.33,1.25-.78,2.66-1.41,4.6-2.24,6.75-6.17,17.21-8.03,20.4-.63,1.05-1.36,1.89-2.34,2.93-15.34,14.75-34.79,26.11-55.25,33.16,5.67-23.46,21.72-43.8,42.69-56.99ZM700.07,193.87c-.14,1.91-.97,4.14-1.37,5.71-.9,2.75-2.46,5.54-4.38,7.92,1.33-4.33,2.98-8.58,4.64-12.79.17-.42.4-1.51.82-2.06.17.37.26.78.29,1.22ZM750.65,125.82c1.35-.43,3.62.04,4.95.14,4.15,1.7,6,5.71,4.45,9.59-8.57,21.42-43.42,66.12-59.39,83.2l-.09.1c-4.46,4.8-10.43,12.59-15.21,16.38-.05.05-.11.1-.18.16.97-4.78,1.64-10.91,4.09-15.36,1.51-2.55,5.94-6.49,7.81-9.23.95-1.35,1.82-2.7,2.66-4.17,2.69-4.71,5.04-10.56,3.56-14.88-.42-1.1-1.79-2.04-1.81-3.29,4.09-11.09,37.23-58.88,49.16-62.63ZM931.62,253.19l-.4-.46,2.74-2.58.35.19c-.49,1.29-1.38,3.02-2.7,2.85ZM880.74,264.36c-.82-2.1,2.21-6.38,4.14-8.29,4.34-4.34,10.61-6.85,16.89-6.98,1.93.04,3.85.3,5.71.81-.17.16-.39.3-.6.47-1.63,1.6-6.13,4.84-10.82,7.86-4.76,3.05-9.61,5.8-11.75,6.2-1.7.32-2.84.26-3.58-.06ZM852.7,259.46c-1.72,1.05-4.11,1.54-7.41,2.43-2.7.57-5.23,1.38-7.85,1.75,2.15-2.28,4.63-4.31,7.39-5.99,2.08-1.3,5.83-2.95,8.77-3.14.92.05,1.71.29,2.28.78.02.04.03.09.05.13-.36,1.37-1.98,3.17-3.24,4.04ZM829.02,271.47c.96-2.37,12.11-6.03,17.08-6.84-3.69,3.37-12.77,8.34-17.08,6.84Z"/><path class="cls-1" d="M979.15,243.43c1.01,0,1.25-.78,1.03-1.57.34-.95-.59-2.63-1.83-2.63-1.01,0-1.25.78-1.03,1.57-.34.95.59,2.63,1.83,2.63Z"/><path class="cls-1" d="M281.42,249.44c1.68-1.46-5.6,4.97-7.22,6.76-5.58,6.16-18.1,16.03-26.45,8.62-7.23-6.41-3.74-21.17-1.55-29.17,1.08-3.95,3.18-11.69,5.17-15.05,1.14-1.91,5.66-5.66,7.47-7.66,4.45-4.91,9.32-10.97,12.5-16.76,1.58-2.87,3.55-8.88.65-11.41-2.45-2.15-4.05.12-5.57,1.94-3.69,4.43-7.72,10.36-10.19,15.54-2.22,4.65-3.85,10.2-6.39,14.63-.48.83-2.65,2.7-3.47,3.42-18.32,16.15-39.72,31.72-62.54,41.08-9.95,4.08-26.13,10.37-36.86,8.17-3.06-.63-7.93-4.55-9.27-7.39-.86-1.81-1.24-4.77-1.48-6.78-.1-.85-.64-4.26-.03-4.67.29-.2,2.73-.44,3.38-.58,6.21-1.37,14.04-4.36,20.13-6.57,25.7-9.33,54.04-22.29,75.58-38.91,7.69-5.93,16.25-13.09,22.03-20.9,1.19-1.6,5.44-7.91,5.78-9.48.88-4.04-.81-12.5-3.77-15.59-3.99-4.17-10.86-7.18-16.63-7.4-17.6-.67-39.53,10.46-53.09,20.88-7.68,5.9-15.89,12.81-22.84,19.52-6.69,6.47-13.77,16.12-19.2,23.86-3.92,5.57-8.69,12.76-11.92,18.73-2.32,4.3-2.89,9.26-3.45,14.05-11.08.93-22.19,3.94-33.28,1.08-7.6-1.96-18.9-7.37-21.77-15.11-.66-1.78-2.39-8.09-2.31-9.76.04-.77.83-2.23-.48-2.56-1.59-.4-1.66,3.07-1.61,4.1.35,7.69,3.12,13.8,9.42,18.37,9.01,6.54,19.24,9.28,30.35,8.98,6.58-.18,13.05-1.66,19.59-2.25.57,4.54.53,10.02,3.29,13.9,6.98,9.84,17.48,9.48,28.24,7.17,17.1-3.68,35.96-13.29,50.6-22.59,10.23-6.51,18.84-13.53,28.08-21.21,1.3-1.08,2.43-2.34,3.87-3.24-1.39,4.28-2.91,8.53-4.08,12.88-2.39,8.87-4.76,19.89,1.36,27.84,6.78,8.81,18.31,5.27,25.44-.96l2.86-2.36c1.77-2.16,5.79-4.31,7.43-6.33,1.13-1.4.69-5.53,2.22-6.86ZM257.77,205.79c2.23-5.27,5.55-10.62,9.15-15.1.34-.43,2.58-3.09,2.78-3.19.34-.17.39.05.56.25-.25,1.37-.14,2.99-.42,4.33-.89,4.18-8.78,13.59-11.88,17.05l-2.34,2.29c.66-1.89,1.37-3.78,2.15-5.63ZM136.43,244.38c1.54-10.05,8.98-17.76,13.82-26.43,6.71-8.29,12.27-17.26,20.19-24.51,7.09-6.5,15.39-13.49,23.15-19.2,11.8-8.68,34.87-19.34,49.82-17.01,3.59.56,9.64,3.82,11.57,6.91,1.21,1.94,1.9,5.86,2.09,8.14.16,1.83.31,3.07-.64,4.67-2.61,4.39-5.81,8.47-9.31,12.19-1.83,1.94-3.86,3.85-5.85,5.64-25.34,22.8-60.1,38.7-92.5,49.38-4.16,1.37-8.22,3.25-12.67,3.64.16-1.13.15-2.29.32-3.42Z"/></svg>