<?xml version="1.0" encoding="UTF-8"?><svg id="_1080_x_1080_px_Logo_Set_1" xmlns="http://www.w3.org/2000/svg" viewBox="0 0 1080 1080"><defs><style>.cls-1{fill:#adadad;}.cls-2{fill:#4f4f4f;}.cls-3{fill:#5c5c5c;}.cls-4{fill:#fff;}.cls-5{fill:#868686;}</style></defs><path d="M636.2,775.99l-20.39,28.36c-1.79,1.18-2.27-1.36-1.62-2.64,6.87-10.4,16.68-19.73,21.75-31.16,1.05-2.37,2.98-11.11,5.09-11.68.7-.19,1.41.19,1.72.76,1.34,2.45-3.01,7.26-3.45,10.2-.37,2.49-.98,8.64-.74,11.02,1.95,17,20.79-5.3,26.15-8.03.36-.05.89.08,1.2.26,1.43.86.23,11.3,4.23,12.92,4.5,1.82,11.76-8.81,17.03-8.3,4.03.39,5.42,8.92,9.28,10.25,2.1.01,8.64-8.48,12.01-9.81,2.15-.85,11.76-1.62,14.66-1.79,1.07-.06,1.38-.37,2.03.39,1.24,1.44,1.06,7.43,1.06,7.43,3.37,4.11,13.35-9.6,17.37-6.85.84.53,1.05,4.25,1.01,5.32,1.82-.78,2.85-2.17,4.88-2.88,10.57-3.83,10.03,6.58,16.95,5.72.76-.14,7.99-4.41,9.06-5.14,3.79-2.6,4.95-5.63,10.48-6.36,4.22-.56,12.84.56,11.53,6.23l-4.79,13.58c4.69-4.53,8.72-9.62,13.79-13.78,1.07-.87,6.46-5.62,7.52-4.65.15.79.02,1.26-.38,1.95-.89,1.54-6.75,5.47-8.61,7.21-4.38,4.11-12.73,12.5-16.14,17.08-6.8,9.16-10.17,27.01-17.36,35.13-2.83,3.2-6.95,4.36-7.98-.74-1.69-8.36,3.29-15.18,8.56-21.22,3.89-4.45,11.19-9.89,14.17-14.27,1.95-2.87,7.65-15.44,8.36-18.69.32-1.46.25-2.79-1.65-2.34-4.67,1.12-8.78,5.21-14.39,4.83-1.11-.07-3.4-1.07-3.93-.95-1.25.29-4.27,3.19-5.84,3.87-8.37,3.63-10.08-5.9-15.22-6.29-3.99-.3-8.26,6.45-10.66,5.1-1.05-1.09-.05-6.69-1.34-6.72-3.66,1.71-10.03,8.26-14.05,7.94-.99-.08-3.52-1.14-3.54-2.18l-.17-6.6c-5.16.9-10.34-.11-15.07,2.42-3.65,1.95-8.23,9.12-11.81,9.36-5.21.36-7.72-9.89-9.75-10.4-3.58-.9-11.21,10.69-18.24,8.19-2.59-.92-4.19-6.79-4.4-9.18-.05-.5.84-3.22-.29-3.16-.36.02-4.44,4.12-5.28,4.8-5.99,4.99-19.43,15.91-22.6,2.49,0,0-.18-7.03-.18-7.03ZM792.49,777.19c-1.96-2.59-9.14-.73-11.06,1.26l-2.73,3.78,13.79-5.04ZM772.6,817.94c-3.84,4.65-8.95,11.76-6.72,17.91,1.44,3.99,4.64-1.57,5.63-3.29,2.98-5.18,5.13-11.75,7.64-17.25.31-1.07,4.42-7.06,3.13-7.17-3.18,3.27-6.78,6.29-9.67,9.8Z"/><path d="M530.48,768.02c0,.06.02.88.03,1.11,0,.21-.06.09-.26.14-2.89.23-7.55.6-10.22.81-.58.04-1.04.08-1.49.12-.09,0-.1-.01-.24.12-3.48,3.35-7.94,12.08-5.32,16.48,1,1.87,3.42,2.28,5.43,1.83,1.33-.19,2.95-.88,4.06-.95.69-.08.43.94.17,1.26-1.87,1.99-6.85,1.93-9.1.76-3.14-1.69-3.82-5.02-3.04-8.49.07-.3,0-.47-.21-.46-.97-.05-2.66,1.98-3.64,2.94-4.32,3.5-11.71,8.65-17.23,5.22-2.94-2.31-1.53-4.39-6.49-3.42-2.27.48-5.07.32-7.01-.64-1.16-.45-2.28-1.27-3.64-1.67-5.97,4.59-14.2,10.63-22.17,7.52-2.5-1.03-4.24-3.3-4.49-5.9-.04-.31-.04-.76-.07-.96-.02-.1-.05-.11-.1-.1-.99.17-6.43,3.63-8.75,4.93-2.56,1.29-16.79,7.2-16.12.38.99-5.19,11.65-10.27,16.95-10.21,1.33.03,2.76.38,3.89.82,2.11.72,3.12,1.82,4.71.38.42-.32.88-.59,1.38-.47.18.05.35.14.49.26,1.02,1.03-.07,4.11.45,5.83,2.77,8.12,17.83-.03,21.18-3.41,1.64-1.45.55-3.71,1.67-5.44.99-1.83,3.18-1.56,4.07.08.73,1.62-1.83,3.07-1.26,4.52,1.44,2.31,5.31,2.57,7.6,2.15,1.77-.24,3.42-.64,4.99-.3.77.18,1.29.64,1.74,1.2,1.28,1.61,1.98,4.07,6.27,3.47,3.35-.47,7.99-3.23,11.91-6.73,3.84-3.44,7-7.62,7.25-10.97-.03-.11-.13-.19-.29-.23-3.72-1.01-8.49,1.2-11.67-1.03-.32-.2-.57-.67-.26-.95.1-.1.2-.15.3-.17.57-.08,2.53.5,3.88.67,1.53.14,3.41.04,5.16.01,2.06-.14,3.79,0,4.34-.54,1.3-1.87,4.77-9.92,5.96-10.76.3-.2,1.08-.21,1.52-.17.23.02.49-.03.6.09.78,3.85-2.11,7.37-3.56,10.78-.06.15-.11.25-.1.28.86.07,8.95-.25,10.74-.24v.03ZM442.76,781.67c-3.83-1.52-8.24-.64-11.92.92-4.4,1.87-8.57,5.62-7.71,7.01.5.81,2.7.82,7.5-.77,3.1-1.03,7.23-3.2,9.99-4.96.7-.45,1.69-.95,2.14-1.57.16-.2.14-.46.06-.57l-.07-.05Z"/><path d="M585.78,786.62c1.23.47,4.63-3.91,5.56-4.52.56-.41,1.57-.11,1.49.64-.08,1.75-4.51,4.97-5.81,5.93-.06.07-.08.15-.07.28.06.33.2,1.15.28,1.34.22.24.96.07,1.31.12.26,0,.38,0,.41.1.02.22-.12,1.49-.18,1.9-.79,1.16-2.53.44-3.25-.49-.7-.73-1.14-1.46-1.41-1.35-1.97.61-4.48,2.04-6.4,2.43-9.48,2.05-14.14-4.52-10.94-11.78,1.37-3.15,3.93-5.99,6.75-8.07,1.92-1.56,5.73-3.51,6.3-5.73.46-2.37-.07-6.27,2.28-7.78,4.31-2.58,7.12,2.46,4.77,6.31-.82,1.37-2.64,2.21-3.68,3.38-2.34,3.14,2.64,13.54,2.56,17.23l.03.07ZM585.09,761.5c-1.8-.42-2.87,4.45-2.57,4.75,2.2-.54,3.32-2.74,2.57-4.75ZM579.94,771.85c-.11-.09-.74.19-1.52.72-4.68,3.21-8.32,6.2-9.99,10.99-1.41,4.51,1.07,7.93,6.04,7.85,2.87-.03,6.27-1.41,8.81-2.97-.73-4.54-2.52-12.41-3.31-16.58h-.02Z"/><path d="M666.35,766.56c1.82,0,.81-2.88-.71-2.88-1.82,0-.81,2.88.71,2.88h0Z"/><path d="M725.39,769.26c1.82,0,.81-2.88-.71-2.88-1.82,0-.81,2.88.71,2.88h0Z"/><path d="M913.45,742.25l.04,1.67c-1.34-.03-2.71.17-4.05.12-77-2.6-153.81-2.55-230.78-2.19-65.14.31-129.93-.5-195.13-.99-40.22-.3-80.04.77-120.22.46-11.15-.09-22.26.08-33.39-.41l-.03-1.25,32.52-.41c.86-.07,1.73.37,2.55.37,32.53-.05,64.81-.64,97.28-.74,63.04-.19,125.8,1.66,188.75,1.11,83.39-.73,167.25-1.48,250.78,2.12,3.84.17,7.83-.02,11.69.13Z"/><path d="M322.35,698.55c-.25.83-.63,1.71-.95,2.45-4.53,10.17-10.2,19.96-14.51,30.2-.36.86-.82,1.73-1.03,2.67-.06.29-.05.54.01.74,0,.02-.01.03-.01.05-.09.46-.06.85.21,1.03.23.1.5.07.76-.03.01,0,.02.02.03.03.53.24,1.26-.25,1.62-.53.31-.28.44-.56.66-.95.98-1.76,2.5-5.48,3.51-7.85,2.1-4.7,4.43-9.29,6.82-13.88.67-1.22,1.33-2.53,2.07-3.71,1.93,1.01,3.39,1.52,5.01,1.43.91.06,1.84-.06,2.92-.41,5-1.5,8.89-6.59,13.76-9.09,3.22-1.07,7.15-1.21,10.37-2.21,3.86-1.17,7.51-2.92,11.23-4.43.35-.14.7-.29,1.06-.42.22-.07.44-.18.66-.26.03.02.06.04.09.06-.02.06-.04.11-.05.18-.5,2.02-1.29,3.28-1.13,4.8-.06.62,0,1.25.31,1.97,1.2,2.95,3.69,4.38,6.56,4.23,1.17.06,2.42-.15,3.68-.64,4.92-1.74,9.41-5.47,13.34-8.66,8.86-6.95,16.71-15.9,25.86-22.46-2.36,6.03-16.05,32.23-15.34,36.24-.12,1.07.15,1.55.95,1.2,0,0,.01-.01.02-.01.16.16.41.17.77.01.45-.3.84-.89,1.07-1.35.81-1.65,2.9-8.67,4.17-10.06.85.4,1.79.45,2.75.43.82.03,1.66-.05,2.47-.08.67.02,1.3.12,1.86.41.98.82,2.22,2.94,3.2,3.99,3.63,3.78,6.73,5.15,9.86,5.01,3.94.16,7.84-2.19,12.78-5.24,7.02-4.14,12.58-10.12,18.89-14,.06-.03.13-.06.2-.09.07.06.12.13.15.22.67,3.16,1.04,6.36,1.06,9.59,0,.4-.01.8-.03,1.2,0,.15-.04.28-.12.37-1.85,1.4-6.79,5.09-6.31,7.74-.1.6,0,1.16.39,1.66.88,1.13,1.84,1.47,2.75,1.32,1.61.27,3.19-1.19,4.14-2.95,1.27-2.04,1.08-4.33,2.44-6.11,9.29-5.27,17.78-11.65,25.78-18.54-2.57,6.76-10.32,27.04-10.5,27.51.11,0,.2,0,.3,0-.17.46-.28.74-.3.79.3.03.56,0,.81-.06,0,.02-.02.05-.02.06,2.73.25,3.1-3.38,4.18-5.05,1.64-2.59,4.68-6.31,6.81-8.62,2.28-2.26,6-6.62,9.58-6.93.09,0,.18,0,.26.02,1.06.41,1.47,1.22,1.55,2.15-.06.8-.29,1.63-.5,2.33-.65,2.95-3.72,7.85-3.49,11.48-.06,1.12.13,2.15.72,3,.73.53,1.65.72,2.7.64,5.44.35,15.36-8.13,19.27-10.66-.61,2.07-.86,3.66-.8,4.84-.14,2.85,1.15,3.82,3.28,3.67,2.89.24,7.88-2.36,12.88-5.16,4.06-2.25,7.6-4.77,11.35-7,.1.58.15,1.19.16,1.84-.02,1.4-.14,2.88-.11,4.3-.04,3.17.4,6.17,3.94,7.43.74.22,1.61.3,2.52.26,3.67.15,8.55-1.9,9.57-4.84.06-.29-.11-.47-.36-.56-.18-.03-.35-.03-.53-.02.03-.07.07-.14.1-.21.06-.29-.11-.47-.36-.56-1.85-.29-3.59,1.75-5.41,2.44-2.57,1.09-4.29,1-5.41.2-1.72-2.4-1.12-7.34-.59-10.49.09-.87.47-1.59.55-2.33-.03-.6-.55-1.1-1.09-1.54-.36-.5-.98-.93-1.44-1.3-16.89-10.64-28.63,9.15-43.53,15.84-1.58.65-3.87,1.74-5.11,1.42-.13-.5-.07-1.24.29-2.33.79-3.8,6.17-13.07,2.23-15.74-.69-1.01-1.99-1.6-4.2-1.52-3.27.66-7.8,5.19-9.98,7.67-.36.52-.89,1.3-1.41,1.95,2.42-6.73,7.68-20.63,7.85-21.22.27-.47.62-.99,1.06-1.55,2.95-3.94,9.09-9.33,9.35-12.88.14-1.18-.27-2.76-1.33-3.35-.43-.69-1.11-1.15-2.07-1.01-1.53.44-3.52,3.4-4.56,4.99-2.33,3.78-3.06,8.43-4.97,12.23-3.31,5.73-22.91,20.95-29.38,23.23-.04.01-.08.02-.12.03-.32-2.48-1.26-9.66-1.45-11.92.77-1.7,4.43-4.67,5.66-7.19.83-1.27.35-2.65-.75-3.36-.5-.78-1.46-1.31-2.59-1.28-2.44.16-4.58,3.3-5.21,5.73-.16.5-.17,1.08-.14,1.68-.03.65.04,1.36.07,2.05-.03.45-.1.87-.29,1.24-.62.98-4.15,3.83-6.14,5.41-2.85,2.3-6.65,5.1-11.87,8.5-7.07,4.36-13.77,9.36-20.27,3.3-.27-.29-.54-.59-.81-.93-.79-1.06-1.82-2.2-2.26-3.41.04-.04.13-.13.18-.18,5.07-2.43,10.5-4.71,13.67-9.27,1.45-1.86,2.36-4.87.88-6.6-.17-.21-.37-.37-.59-.51-.06-.09-.13-.19-.2-.28-3.9-4.63-17.19,7.57-20.26,9.77-.16.13-.38.27-.6.38,1.14-2.64,8.1-18.73,10.7-24.77,3.05-3.71,16.05-15.01,10.8-19.63-.04-.01-.09-.01-.13-.02-.18-.27-.39-.53-.66-.77-1.67-.56-4.62,2.92-6.17,5.01-3.46,4.42-4.13,10.03-7.41,14.5-8.86,9.6-20.69,19.2-30.88,27.57-4.13,3.06-8.57,6.71-12.84,7.58-1.64.27-3.1-.07-4.14-.86-.58-.77-.88-1.76-.78-2.9.49-7.7,7.79-7.77,12.96-11.28,1.56-1.03,3.99-2.61,4.28-4.04-.15-.79-.63-1.42-1.27-1.89-1.11-1.58-3.75-2.14-5.63-1.31-4.41,1.69-6.72,7.87-9.72,9.96-4.89,2.67-14.39,5.65-18.01,6.76-.99.27-2.69.72-3.86.95.93-1.86,2.8-3.42,3.79-5.3,2.17-3.79,2.97-8.07.41-9.92-1.01-1.39-3.06-2.09-6.52-1.54-2.26.31-4.12,1.94-6.14,2.91,1.64-2.68,4.17-4.95,5.97-7.52,1.87-2.66,5.02-7.09,5.05-9.65-.06-1.22-.82-2.54-1.91-3.43-.91-1.1-2.26-1.9-3.68-1.81-1.66.25-2.24,1.15-3.49,2.55-4.26,5.54-8.97,14.52-11.2,19.33-1.36,3.21-3.38,7.98-4.43,9.51-.96,1.39-2.65,6.21-2.65,6.21ZM413.24,696.19c-.43-.27-.97-.67-1.46-1.1-.12-.15-.23-.29-.3-.42-.05-.81,2.69-2.84,4.32-4.02,2.41-1.73,9.81-6.83,12.73-7.29.8.13,1.33.66,1.47,1.38-.01.09-.02.17-.04.26-.36,1.64-1.46,3.42-2.57,4.63-2.05,2.1-11.52,7.84-14.14,6.55ZM408.19,696.72c.22-.41.57-.64.96-.73.56.11,1.1.45,1.39.92-.5.01-1.58-.01-2.36-.19ZM427.09,653.64c.34-.45,1.88-2.52,2.92-3.11.01.02.03.03.03.05-.51,2.11-3.98,6.96-6.14,9.13.72-2.16,1.85-4.28,3.19-6.06ZM381.68,681.65c.39.07.71.26.95.61.05.07.09.14.13.21-.08.13-.19.27-.33.43-.57.64-5.33,3.3-7.61,4.19,1.15-2.05,4.57-5.09,6.86-5.44ZM345.72,664.3l.09.07c.52.5.77,1.08.85,1.68-.25,2.15-2.3,4.59-3.26,6.18-3.27,4.86-7.46,9.55-11.75,13.77.04-.12.09-.25.13-.36,1.93-4.37,3.33-6.89,6.59-12.77,1.2-1.75,4.22-8.2,6.79-8.85.19.05.38.14.56.29ZM340.89,698.16c-.14.04-.31.07-.32.07-.34.04-10.38,1.07-14.83,1.52,1.4-5.11,8.11-9.95,12.51-12.82,2.28-1.35,6.05-3.94,9.2-4.15.79.06,1.53.29,2.18.78l.05.05c.39.49.6,1.09.65,1.77-.32,4.66-6.3,11.88-9.44,12.76ZM323.04,706.57c-.38-.65-.31-1.48.57-2.47,2.55-2.25,9.56-2.2,13.75-2.82-.41.72-1.5,1.15-2.16,1.7-1.98,1.44-5.66,3.99-8.04,4.34-1.31.21-3.04-.06-4.12-.76ZM464.97,678.32c-.42,1.83-3.07,5.01-4.08,5.23-.26-1.65,1.42-5.29,3.52-5.66.02,0,.03,0,.04,0,.27.07.44.22.51.44ZM456.02,708.67c-.11-1.3,2.37-3.69,3.46-4.35-.01.04-.02.09-.03.12-.21,1.32-1.66,4.7-3.43,4.23ZM522.24,706.26c-.29-1.08.18-2.63.36-3.58,1.74-6.85,9.58-11.69,17.11-11.87,1.55.03,3.08.26,4.52.73,1.13.39,2.31.89,3.25,1.61-.19.2-.46.37-.62.51-1.97,1.8-6.97,4.64-10.07,6.38-1.86,1.04-9.03,4.89-12.84,5.96-.71.21-1.31.29-1.73.26ZM502.64,662.5c-.33,1.79-3.36,5.68-4.83,7.29.94-2.52,2.03-5.49,3.74-7.14.3-.29.59-.48.85-.6.12.09.2.24.24.45Z"/><path d="M929.63,701.19s.05-.04.06-.05c.05-.05.08-.05.1-.19,0-.84-1.1-.55-1.74-.4-4.38.74-17.34,10.89-21.49,8.46-.64-1.06-.72-2.91,0-5.84.29-1.79,1.46-4.74.65-5.99-.16-.1-.36-.15-.56-.19-.04-.23-.11-.43-.22-.6-.46-.27-1.16-.32-1.67-.08-4.74,3.61-8.99,7.65-14.25,10.65-4.66,2.64-7.09,3.21-8.3,2.64-1.08-2.17.92-7.34-.42-9.82-.19-.18-.39-.3-.61-.39-.05-.14-.11-.28-.18-.4-.72-.7-1.73-.56-2.75-.47-1.54.19-3.28.68-4.81.95-.78.14-1.5.22-2.11.19.05-.15.12-.3.16-.42.43-.99,1.06-1.95.88-3.06-.13-.75-.5-1.2-.99-1.42-1.34-2.78-7.44,1.19-6.88,3.99-.17.92.2,1.8,1.47,2.39.2.06.32.14.41.24-.69,1.32-3.8,3.41-4.9,4.12-2.11,1.39-4.94,2.63-7.23,2.55-.47-.07-.85-.23-1.18-.43-1.48-2.24-.38-6.89-1.07-9.3-.14-.81-.61-1.41-1.24-1.87-.83-1.18-2.55-1.74-4.04-2.11-6.07-1.22-11-.66-15.97,2.22-1.46.95-3.2,2.45-4.69,3.33-1.6.68-3.51.76-5.28,1.03-5.13.41-9.66,1.37-14.54,2.43-.02,0-.04,0-.06,0,.61-1.96.96-3.52-.41-4.2-.26-.59-.85-.98-1.99-1.12-3.82-.47-7.8.47-10.88,2.78-1.36.96-3.47,2.44-4.99,3.51.01-.02.02-.04.03-.07,2.03-3.97,5.04-9.95,7.16-14.02,1.56-2.92,15.39-18.46,11.94-20.45-.09-.01-.18,0-.27.01-.06-.35-.22-.63-.52-.8-1.94-.24-5.59,5.07-7.15,7.55-2.27,3.42-3.41,7.86-5.53,11.36-4.57,6.39-22.25,16.83-31.84,20.53-3.71,1.4-5.94,1.5-7.14.79-1.36-2.35,1.14-7.63,3.6-11.71.55-1.2,2.11-3.23.38-3.65-.04-.44-.34-.77-1.14-.85-2.46-.13-7.94,4.57-11.6,3.44.07-.48.5-1.14.8-1.95,1.01-2.09,1.8-4.53.06-5.51-.38-.75-1.26-1.23-2.93-1.23-2.48-.03-3.59,3.16-3.44,5.35-.03.56,0,1.09.11,1.54.16.79.84,1.3,1.32,1.89.09.11.15.23.19.36-.85,3.14-10.05,9.1-11.93,10.16-3.36,1.66-7.93,2.81-10.32,1.07-.65-.91-.96-2.24-.75-4.11-.18-1.54,1.56-5.9,2.65-8.96,0,0,0,0,.01,0,.66-2.35.6-1.25.66-4.32,0-.38-.05-.39-.38-.69l-.07-.07c-.11-.06-.23-.11-.34-.17-.01-.24-.09-.3-.37-.55l-.07-.07c-2.3-1.33-6.1-1.8-8.76-1.93-5.15.18-13.46,3.29-17.84,6.03-7.53,4.63-14.45,14.36-24.32,13.81-2.99-.25-6.37-1.52-8.7-3.61-.72-.79-1.29-1.68-1.64-2.66-1.22-3.46-1.48-9.54,1.5-12.42,9.52-7.46,17.1-18.51,25.23-27.39,2.07-2.34,3.83-4.62,5.74-7.23,5.53-7.39,41.72-54.11,32.86-61.54-1.71-2.01-4.81-3.61-9.52-2.73-9.89,1.86-37.19,40.28-41.55,49.43-.69,1.4-1.29,2.99-1.94,4.38-.11.16-.32.07-.67.03-19.91-5.52-44.11,21.19-52.43,35.94-3.18,5.94-5.06,12.3-7.26,18.59-.29.63-.33,1.54-.94,1.94-4.12,1.78-8.3,3.42-12.67,4.56-5.01,1.33-10.75,2.52-14.5,4.19-.36.18-.88.33-1.06.7-.08.21-.12.49.03.65.02,0,.05,0,.07.01-.03.04-.08.08-.1.12-.08.21-.12.49.03.65.18.07.53.07.98.04.35.05.97,0,1.77-.12,3.36-.53,8.65-1.99,12.16-2.97,4.23-1.16,8.35-2.83,12.58-4.05.27-.07.57-.16.88-.25-.08.61-.11,1.18-.09,1.7-.23,4.95,3.67,6.61,8.13,6.5,3.22.08,6.85-.85,9.5-2.18,9.16-3.66,16.76-9.92,24.72-15.45.91-.62,1.87-1.3,2.81-1.9-.02,1.05-.05,2.11-.04,3.18-.03,4.28.36,8.61,4.41,11.18,3.29,2.33,7.43,3.44,11.51,3.33,4.21.05,8.43-1.2,11.68-3.81.6-.42,1.21-.81,1.87-1.1,0,.15.02.29.04.43-.02.1-.04.2-.04.28.04,2.91,1.94,3.89,4.69,3.78,6.24.28,18.07-6.38,21.14-8.27,1.27-.71,5.03-3.19,6.83-3.97-.65,2.59-1.86,5.49-1.73,8.18-.03.76.02,1.5.21,2.22,1.4,3,3.89,4.04,6.77,3.93,5.82.23,13.59-4.87,16.89-8.22,1.54-1.64,3.96-4.52,4.37-4.8.07-.02.14-.02.21-.02.97.11,2.06.51,2.94.49.11,0,.23-.02.34-.02.15.02.3.03.45.02,2.42.03,4.72-1.5,7-2.31-.26,1-.82,1.87-1.36,3.07-1.23,2.35-2.64,5.33-2.47,7.67-.14,2.08.71,3.79,3.6,4.39.53.07,1.06.09,1.61.07,3.74.16,7.94-1.96,10.9-3.26,8.48-3.91,14.84-8.94,22.36-13.87-2.78,5.22-5.35,10.74-8.61,15.64-1.05,1.34-2.8,2.35-2.62,4.23,0,.04.01.09.02.13-.03.21-.04.43-.02.66.03.39.12.92.5,1.05,1.26.49,2.56.67,3.86.63,2.25.09,4.52-.54,6.64-1.4,4.09-1.47,7.68-4.99,11.27-7.49.92-.63,1.76-1.13,2.65-1.49,1.59-.6,9.92-2.41,15.63-3.39.73-.09,2.92-.52,4.28-.62.03,0,.05,0,.07.01-.68,1.56-1.96,3.39-1.74,5.03-.04.31-.04.62.01.92.72,2.03,2.3,2.64,4.15,2.53,3.06.2,7.22-2.1,9.38-3.31,4.77-2.63,8.82-6.27,13.39-9.19.44.99.53,2.16.54,3.37,0,.51-.01,1.03,0,1.53-.03,2.54.06,5.02,2.58,6.28,1.01.47,2.1.64,3.21.58,5.18.25,11.28-5,14.38-8.13.28-.22.52-.12,1.55-.27,2.27-.27,6.63-.78,8.39-.99.02.19.03.37.04.57-.05,1.66-.39,3.48-.34,5.18-.05,1.58.15,3.09,1.14,4.33.76.75,1.8,1.01,2.99.93,4.75.37,12.8-6.04,15.22-7.83,1.39-1.02,4.71-4.16,6.29-4.94-.35,2.16-1.58,4.22-1.46,6.48,0,.06,0,.12.01.19,0,.2-.02.4-.01.6.17,4.09,1.99,5.18,4.38,5.03,2.2.15,5.06-1.09,7.55-2.07,1.95-.8,13.72-6.41,14.95-7.5.05-.05.08-.05.1-.19,0-.54-.45-.61-.95-.55ZM743.15,694.62s-.03-.02-.05-.03c-.75-1.41-.18-3.88,1.24-4.24.42.11.63.38.71.76-.24,1.5-1.54,3.5-1.9,3.51ZM688.17,706.79c-.97-2.02,1.99-6.2,3.54-7.9,3.13-3.6,8.17-5.84,13.36-7.74,2.94-1.02,5.77-1.78,8.63-1.85,2.09.04,4.2.46,6.38,1.45.12.05.21.22.26.43-.18.61-1.1,1.61-1.62,2-2.07,1.57-5.92,3.65-8.91,5.57-5.12,3.01-13.54,7.79-19.41,8.38-1,.05-1.73-.07-2.23-.33ZM614.35,708.28c-.15-.19-.28-.39-.4-.61-.73-1.56-.76-4.52.14-5.64.45-.5,1.09-.74,2.23-1.25,3.1-1.32,7.28-2.58,10.5-3.91,12.23-5.36,23.21-12.49,33.25-20.91-.72,2.82-2.07,8.11-2.6,10.12-11.12,8.81-22.58,19.23-36.82,23.05-2.19.44-4.64.42-6.29-.84ZM650.38,650.66c3.95-2.26,10.42-5.57,15.92-5.72,1.57.05,3.04.38,4.33,1.1.13.15.21.32.25.5-.04.24-.1.48-.15.68-.27,1.05-.65,2.23-1.18,3.84-1.87,5.64-5.16,14.38-6.72,17.06-.53.88-1.14,1.58-1.95,2.45-12.82,12.33-29.08,21.83-46.18,27.72,4.74-19.61,18.16-36.61,35.68-47.63ZM673.8,649.56c-.11,1.59-.81,3.46-1.15,4.78-.75,2.3-2.06,4.63-3.67,6.62,1.11-3.62,2.49-7.17,3.88-10.69.14-.35.34-1.27.69-1.73.14.31.22.65.25,1.02ZM716.08,592.68c1.13-.36,3.03.03,4.14.12,3.47,1.42,5.01,4.77,3.72,8.01-7.16,17.91-36.29,55.27-49.64,69.54l-.08.08c-3.72,4.01-8.72,10.52-12.71,13.69-.04.04-.09.08-.15.13.81-4,1.37-9.12,3.42-12.84,1.26-2.13,4.97-5.42,6.52-7.71.8-1.13,1.52-2.26,2.23-3.49,2.25-3.94,4.22-8.82,2.98-12.44-.35-.92-1.5-1.7-1.51-2.75,3.42-9.27,31.12-49.21,41.09-52.35ZM867.35,699.14l-.33-.38,2.29-2.16.3.16c-.41,1.08-1.15,2.52-2.25,2.38ZM824.81,708.48c-.68-1.76,1.84-5.33,3.46-6.93,3.63-3.63,8.87-5.73,14.12-5.83,1.61.03,3.22.25,4.78.68-.14.14-.32.25-.5.39-1.37,1.34-5.12,4.05-9.04,6.57-3.98,2.55-8.03,4.85-9.82,5.18-1.42.27-2.38.22-2.99-.05ZM801.38,704.38c-1.43.88-3.44,1.29-6.19,2.03-2.26.48-4.37,1.15-6.56,1.46,1.8-1.9,3.87-3.6,6.18-5.01,1.74-1.09,4.88-2.47,7.33-2.63.77.04,1.43.24,1.91.66.02.03.03.07.04.11-.31,1.14-1.66,2.65-2.71,3.38ZM781.59,714.42c.8-1.98,10.13-5.04,14.27-5.72-3.08,2.82-10.68,6.97-14.27,5.72Z"/><path d="M907.08,690.98c.84,0,1.04-.65.86-1.32.28-.79-.5-2.2-1.53-2.2-.84,0-1.04.65-.86,1.32-.28.79.5,2.2,1.53,2.2Z"/><path d="M323.86,696.01c1.41-1.22-4.68,4.15-6.04,5.65-4.66,5.15-15.13,13.4-22.11,7.21-6.05-5.36-3.13-17.69-1.3-24.38.91-3.3,2.65-9.78,4.32-12.58.95-1.6,4.73-4.73,6.24-6.4,3.72-4.11,7.79-9.17,10.45-14.01,1.32-2.4,2.97-7.42.55-9.54-2.05-1.79-3.38.1-4.65,1.63-3.09,3.71-6.45,8.66-8.52,12.99-1.85,3.89-3.22,8.53-5.34,12.23-.4.69-2.21,2.26-2.9,2.86-15.32,13.5-33.2,26.52-52.27,34.34-8.32,3.41-21.84,8.67-30.81,6.83-2.55-.52-6.63-3.81-7.75-6.18-.72-1.51-1.04-3.99-1.24-5.67-.08-.71-.53-3.56-.02-3.9.24-.16,2.29-.37,2.82-.48,5.19-1.15,11.74-3.64,16.82-5.49,21.48-7.8,45.17-18.63,63.17-32.52,6.42-4.96,13.58-10.95,18.42-17.47.99-1.34,4.55-6.61,4.83-7.92.73-3.38-.68-10.45-3.15-13.03-3.33-3.48-9.08-6-13.9-6.19-14.71-.56-33.04,8.74-44.37,17.45-6.42,4.94-13.29,10.71-19.09,16.32-5.6,5.41-11.51,13.48-16.05,19.94-3.27,4.66-7.26,10.67-9.96,15.65-1.94,3.59-2.42,7.74-2.88,11.75-9.26.77-18.55,3.3-27.82.9-6.36-1.64-15.8-6.16-18.2-12.63-.55-1.48-2-6.76-1.93-8.16.03-.64.7-1.86-.4-2.14-1.33-.33-1.39,2.56-1.35,3.43.29,6.43,2.6,11.53,7.87,15.36,7.53,5.46,16.08,7.76,25.37,7.5,5.5-.15,10.91-1.39,16.38-1.88.48,3.8.45,8.38,2.75,11.62,5.84,8.23,14.61,7.92,23.6,5.99,14.29-3.07,30.06-11.1,42.3-18.89,8.55-5.44,15.75-11.31,23.48-17.73,1.08-.9,2.03-1.95,3.24-2.71-1.16,3.57-2.43,7.13-3.41,10.76-2,7.41-3.98,16.62,1.14,23.27,5.67,7.37,15.3,4.41,21.27-.8l2.39-1.97c1.48-1.81,4.84-3.6,6.21-5.3.94-1.17.58-4.63,1.86-5.74ZM304.09,659.52c1.87-4.41,4.64-8.88,7.65-12.62.29-.36,2.15-2.58,2.32-2.67.28-.14.32.04.47.21-.21,1.15-.11,2.5-.35,3.62-.75,3.5-7.34,11.36-9.93,14.25l-1.95,1.91c.56-1.58,1.14-3.16,1.8-4.7ZM202.67,691.77c1.29-8.4,7.51-14.85,11.55-22.1,5.61-6.93,10.26-14.43,16.88-20.49,5.93-5.43,12.87-11.28,19.35-16.05,9.87-7.25,29.15-16.16,41.65-14.22,3,.47,8.06,3.19,9.67,5.77,1.01,1.62,1.59,4.89,1.75,6.81.13,1.53.26,2.56-.54,3.91-2.18,3.67-4.85,7.08-7.79,10.19-1.53,1.62-3.22,3.22-4.89,4.71-21.18,19.06-50.23,32.35-77.32,41.27-3.48,1.15-6.87,2.71-10.59,3.04.14-.94.13-1.92.27-2.86Z"/><path class="cls-1" d="M583.51,381.47c1.02,1.62.23,2.65-1.14,3.76-50.8,41.77-62.37,126.95-38.82,185.91.98,4.34-1.25,3.8-4.55,4.23-3.88.73-7.78,1.04-11.8,1.55-40.31,3.84-83.18-3.1-117.69-25.07-24.51-15.15-42.65-50.21-43.76-78.74-1.4-17.93,1.21-35.85,4.2-53.46,4.71-16.23,10.72-32.63,19.23-47.24,21.54-50.35,65.69-84.9,113.85-109,2.6-1.11,5.78-3.34,8.53-2.64,8.47,10.7,21.86,27.25,30.45,38.28,8.34,11.04,13.85,23.78,19.44,36.34,6.79,15.6,15.19,30.57,22.06,46.07Z"/><path class="cls-5" d="M732.62,371.99c1.89,109.44-83.99,183.12-185.99,202.25-1.05.18-2.14.2-2.85-.44-26.57-61.53-14.2-145.73,37.88-189.53,20.7-33,121.18-31.6,150.96-12.27Z"/><path class="cls-2" d="M604.44,240.71c7.46.22,15.14,1.33,22.57,2.39,60.9,5.8,104.92,67.69,106.05,126.76-.06,1.5-.78,2.2-2.47,1.53-2.33-.73-4.62-1.54-6.92-2.37-31.23-12.22-83.41-11.28-115.41-1.58-7.85,2.63-14.56,6.61-22.21,13.08-.75.65-1.67,1.58-2.59,1.32-.7-.28-1.07-.99-1.41-1.63-1.43-2.92-2.93-5.81-4.47-8.68-14.62-24.18-21.5-52.56-39.18-74.89-7.24-9.06-25.06-31.57-28.49-35.94,8.08-3.98,17.73-6.56,26.35-9.55,11.2-3.04,22.19-7.4,33.69-9.17,11.5-.43,23-2.03,34.49-1.27Z"/><path class="cls-3" d="M563.21,248.39c-1,.81-2.63-.75-1.87-1.79.63-.85,2.61,1.14,1.87,1.79Z"/><path class="cls-4" d="M672.84,291.56c5.9,5.14,10.43,20.33,9.56,27.9-.34,2.93-6.92,15.25-8.78,18.4-9.09,15.33-23.32,29.98-36.18,42.22-36.04,34.3-85.03,63.09-129.88,84.78-10.62,5.13-24.25,12-35.25,15.63-1.13.37-5.51,1.25-6,1.66-1.03.86.54,7,.87,8.54.78,3.64,2,9,3.87,12.16,2.94,4.95,12.44,11.29,18.08,11.89,19.8,2.11,47.97-12.3,65.25-21.55,39.63-21.22,75.6-53.57,105.91-86.43,1.35-1.47,4.95-5.28,5.67-6.89,3.81-8.58,5.79-19.04,8.98-27.95,3.55-9.94,9.8-21.51,15.7-30.3,2.42-3.61,4.91-8.05,9.73-4.56,5.69,4.13,3.17,15.48.82,21.02-4.74,11.18-12.48,23.15-19.67,32.94-2.93,3.98-10.45,11.66-12.17,15.36-3.01,6.5-5.43,21.06-6.7,28.49-2.56,15.05-6.28,42.71,7.94,53.17,16.42,12.09,35.56-9.79,46.34-20.52,1.4-1.4,4.45-5.56,6.43-5.78,3.66-.42,4.44,2.33,2.64,5.09-2.61,4-9.5,8.66-12.33,12.93l-4.75,4.83c-11.81,12.69-32.04,21.23-45.86,6.29-12.48-13.49-10.13-34.11-7.37-50.78,1.36-8.17,3.36-16.24,5.12-24.32-2.45,1.91-4.28,4.42-6.44,6.63-15.37,15.72-29.71,30.12-47.08,43.87-24.85,19.67-57.29,40.64-87.57,50.43-19.05,6.15-37.98,8.69-52.35-8.1-5.67-6.62-6.56-16.66-8.39-24.89-11.73,2.23-23.17,6.1-35.06,7.61-20.05,2.55-39.04-.66-56.49-11.03-12.21-7.26-18.29-17.96-20.27-31.99-.27-1.89-.76-8.25,2.2-7.8,2.43.37,1.25,3.19,1.32,4.6.15,3.08,4.39,14.34,5.9,17.48,6.56,13.68,27.95,21.57,42.05,23.81,20.57,3.27,40.14-4.24,60.02-7.91.17-8.88.32-18.08,3.77-26.37,4.79-11.51,12.16-25.53,18.26-36.44,8.47-15.14,19.57-34.09,30.54-47.14,11.38-13.53,25.01-27.65,37.88-39.84,22.7-21.51,60.41-45.81,92.37-47.72,10.48-.63,23.44,3.67,31.39,10.59ZM656.14,349.47c5.69-7.44,10.76-15.48,14.71-24,1.44-3.12.94-5.36.34-8.68-.76-4.16-2.69-11.21-5.22-14.55-4.03-5.32-15.55-10.21-22.14-10.59-27.46-1.61-67.32,22.04-87.15,40.05-13.04,11.84-26.82,26.14-38.51,39.31-13.05,14.7-21.54,32.13-32.21,48.52-7.23,16.75-19.34,32.22-20.35,50.91-.11,2.09.11,4.23.02,6.32,7.98-1.51,14.99-5.67,22.28-8.92,56.75-25.34,116.83-60.68,158.67-106.98,3.29-3.64,6.62-7.5,9.59-11.38ZM697.74,350.81c.28-2.51-.21-5.45,0-8.01-.34-.34-.47-.73-1.05-.36-.35.23-3.92,5.49-4.46,6.34-5.72,8.85-10.79,19.24-13.9,29.3-1.09,3.52-2.03,7.11-2.9,10.69l3.83-4.61c4.99-6.88,17.61-25.53,18.49-33.35Z"/></svg>