<svg xmlns="http://www.w3.org/2000/svg" viewBox="0 0 1080 1080"><defs><style>.cls-1{fill:#f2e0d7;}.cls-2{fill:#f8a125;}.cls-3{fill:#ca6c5c;}.cls-4{fill:#176572;}.cls-5{fill:#2c6f7b;}.cls-6{fill:#fff;}</style></defs><g id="_1080_x_1080_px_Logo_Set_1" data-name="1080 x 1080 px Logo Set 1"><path class="cls-1" d="M655.09,874.68l-24.4,33.92c-2.14,1.41-2.72-1.63-1.94-3.16,8.23-12.44,20-23.6,26-37.28,1.25-2.83,3.56-13.29,6.09-14a1.86,1.86,0,0,1,2.06.91c1.6,2.93-3.6,8.69-4.13,12.21-.45,3-1.17,10.34-.89,13.18,2.33,20.34,24.88-6.34,31.29-9.6a2.45,2.45,0,0,1,1.43.31c1.71,1,.27,13.51,5.06,15.45,5.38,2.19,14.07-10.53,20.38-9.92,4.82.46,6.49,10.68,11.11,12.26,2.5,0,10.33-10.14,14.37-11.73,2.57-1,14.07-1.94,17.53-2.15,1.28-.07,1.65-.44,2.43.47,1.48,1.73,1.27,8.89,1.27,8.89,4,4.92,16-11.48,20.78-8.19,1,.63,1.26,5.09,1.21,6.37,2.18-.93,3.4-2.6,5.83-3.45,12.65-4.58,12,7.88,20.27,6.85.91-.17,9.57-5.28,10.84-6.16,4.54-3.11,5.93-6.73,12.54-7.6,5-.67,15.36.67,13.79,7.45L842.3,896c5.6-5.42,10.43-11.51,16.5-16.48,1.27-1,7.73-6.72,9-5.57a3,3,0,0,1-.45,2.33c-1.07,1.84-8.07,6.54-10.3,8.63-5.24,4.91-15.23,15-19.3,20.43-8.14,11-12.17,32.32-20.77,42-3.39,3.82-8.31,5.22-9.55-.89-2-10,3.93-18.16,10.24-25.39,4.65-5.32,13.38-11.82,17-17.07,2.34-3.43,9.15-18.48,10-22.36.38-1.74.29-3.34-2-2.79-5.58,1.33-10.51,6.23-17.21,5.78-1.33-.09-4.08-1.28-4.71-1.13-1.49.34-5.1,3.81-7,4.63-10,4.34-12.05-7.06-18.21-7.53-4.77-.36-9.88,7.72-12.75,6.1-1.26-1.3-.06-8-1.61-8-4.37,2.05-12,9.88-16.81,9.49-1.18-.09-4.2-1.36-4.24-2.6l-.19-7.9c-6.18,1.08-12.37-.13-18,2.9-4.37,2.34-9.85,10.91-14.13,11.2-6.23.42-9.24-11.83-11.67-12.44-4.28-1.08-13.41,12.79-21.83,9.8-3.09-1.11-5-8.13-5.26-11-.06-.59,1-3.85-.35-3.77-.43,0-5.31,4.92-6.31,5.74-7.17,6-23.25,19-27,3Zm187,1.43c-2.35-3.1-10.94-.88-13.23,1.5l-3.27,4.52Zm-23.8,48.75c-4.6,5.57-10.71,14.07-8,21.43,1.73,4.77,5.56-1.87,6.74-3.93,3.57-6.19,6.14-14.06,9.14-20.64.36-1.29,5.29-8.44,3.74-8.58C826,917.05,821.73,920.67,818.27,924.86Z"/><path class="cls-1" d="M528.61,865.14c0,.07,0,1.05,0,1.33s-.08.1-.31.16l-12.23,1-1.78.14c-.11,0-.12,0-.28.14-4.16,4-9.49,14.45-6.36,19.72,1.2,2.24,4.09,2.73,6.49,2.19,1.59-.23,3.54-1,4.86-1.13.82-.1.51,1.12.2,1.51-2.23,2.38-8.19,2.31-10.89.9-3.75-2-4.56-6-3.63-10.16.08-.36,0-.56-.25-.55-1.17-.06-3.19,2.37-4.36,3.52-5.17,4.19-14,10.34-20.62,6.24-3.52-2.77-1.83-5.25-7.77-4.08a13.74,13.74,0,0,1-8.38-.78c-1.39-.53-2.73-1.52-4.36-2-7.14,5.49-17,12.71-26.53,9a8.63,8.63,0,0,1-5.37-7c-.06-.38-.05-.91-.09-1.15s-.05-.13-.12-.12c-1.18.2-7.69,4.34-10.46,5.91-3.06,1.55-20.09,8.61-19.28.45,1.19-6.2,13.93-12.28,20.29-12.21a14.59,14.59,0,0,1,4.65,1c2.52.86,3.73,2.17,5.63.46a2,2,0,0,1,1.65-.56,1.55,1.55,0,0,1,.58.31c1.23,1.24-.08,4.92.54,7,3.31,9.72,21.34,0,25.34-4.07,2-1.74.66-4.44,2-6.51a2.68,2.68,0,0,1,4.87.09c.87,1.94-2.19,3.67-1.51,5.41,1.73,2.77,6.35,3.07,9.09,2.57,2.11-.29,4.09-.77,6-.35a3.71,3.71,0,0,1,2.08,1.44c1.53,1.93,2.37,4.87,7.51,4.15,4-.56,9.57-3.86,14.25-8.05s8.37-9.12,8.67-13.11c0-.14-.15-.23-.34-.28-4.45-1.21-10.16,1.43-14-1.23-.38-.25-.68-.81-.3-1.14a.73.73,0,0,1,.35-.21c.68-.09,3,.59,4.65.8,1.83.17,4.07,0,6.17,0,2.47-.17,4.53,0,5.2-.65,1.55-2.23,5.7-11.87,7.12-12.87a3.72,3.72,0,0,1,1.82-.2c.28,0,.58,0,.72.1.94,4.6-2.52,8.82-4.26,12.9a1.28,1.28,0,0,0-.13.34c1,.08,10.71-.31,12.85-.29ZM423.67,881.47c-4.59-1.81-9.86-.76-14.26,1.1-5.26,2.23-10.26,6.72-9.22,8.38.59,1,3.23,1,9-.92a60.52,60.52,0,0,0,11.95-5.94,9.38,9.38,0,0,0,2.56-1.88.59.59,0,0,0,.08-.68Z"/><path class="cls-1" d="M594.76,887.39c1.47.56,5.54-4.68,6.66-5.41.67-.5,1.88-.13,1.78.76-.1,2.09-5.4,5.94-7,7.09a.4.4,0,0,0-.09.34c.07.39.24,1.37.33,1.6.26.29,1.15.08,1.57.14s.46,0,.49.12a22.73,22.73,0,0,1-.22,2.28c-.94,1.39-3,.52-3.89-.59-.83-.87-1.36-1.74-1.68-1.61-2.35.74-5.35,2.44-7.65,2.91-11.34,2.45-16.92-5.41-13.09-14.1a24.72,24.72,0,0,1,8.08-9.64c2.3-1.87,6.85-4.2,7.53-6.86.56-2.83-.08-7.5,2.73-9.31,5.16-3.09,8.52,2.95,5.7,7.54-1,1.65-3.15,2.64-4.4,4-2.8,3.76,3.16,16.2,3.07,20.62Zm-.82-30c-2.15-.5-3.43,5.33-3.07,5.68A4.26,4.26,0,0,0,593.94,857.34Zm-6.15,12.37c-.13-.11-.88.23-1.83.87-5.6,3.84-10,7.41-12,13.14-1.69,5.39,1.28,9.49,7.22,9.39,3.44,0,7.51-1.68,10.54-3.55-.88-5.43-3-14.85-4-19.83Z"/><path class="cls-1" d="M691.16,863.39c2.18,0,1-3.45-.85-3.45-2.18,0-1,3.45.85,3.45Z"/><path class="cls-1" d="M761.8,866.63c2.18,0,1-3.45-.85-3.45-2.18,0-1,3.45.85,3.45Z"/><path class="cls-1" d="M986.77,834.31l.05,2c-1.6,0-3.24.2-4.85.14-92.12-3.1-184-3.05-276.09-2.61-77.93.36-155.45-.6-233.44-1.19-48.12-.36-95.76.92-143.83.55-13.34-.1-26.63.09-39.95-.48l0-1.5,38.9-.5c1-.08,2.07.44,3.05.44,38.91-.06,77.53-.76,116.38-.88,75.41-.22,150.49,2,225.81,1.33,99.77-.87,200.08-1.77,300,2.54C977.38,834.35,982.16,834.13,986.77,834.31Z"/><path class="cls-1" d="M279.62,782a29.73,29.73,0,0,1-1.13,2.93c-5.42,12.16-12.21,23.88-17.36,36.13a18,18,0,0,0-1.24,3.19,1.87,1.87,0,0,0,0,.89.14.14,0,0,1,0,.06c-.1.55-.07,1,.26,1.22a1.2,1.2,0,0,0,.91,0l0,0c.64.29,1.51-.29,2-.63a4.23,4.23,0,0,0,.79-1.13c1.17-2.11,3-6.56,4.21-9.4,2.51-5.62,5.3-11.11,8.15-16.6.81-1.46,1.59-3,2.48-4.44,2.3,1.22,4.05,1.83,6,1.72a9.33,9.33,0,0,0,3.49-.49c6-1.79,10.64-7.88,16.46-10.87,3.86-1.28,8.56-1.45,12.41-2.65,4.62-1.4,9-3.49,13.43-5.31l1.27-.5c.26-.09.53-.22.79-.32l.1.07a1.41,1.41,0,0,0-.06.22c-.6,2.41-1.55,3.92-1.36,5.74a4.76,4.76,0,0,0,.37,2.36,7.72,7.72,0,0,0,7.85,5.06,10.63,10.63,0,0,0,4.4-.76c5.89-2.08,11.26-6.54,16-10.37,10.6-8.31,20-19,30.94-26.86-2.82,7.21-19.21,38.55-18.36,43.36-.14,1.28.18,1.85,1.14,1.43l0,0c.19.19.49.21.92,0a4.39,4.39,0,0,0,1.28-1.62c1-2,3.47-10.37,5-12a7,7,0,0,0,3.29.51c1,0,2-.06,2.95-.09a5.24,5.24,0,0,1,2.22.49c1.18,1,2.66,3.52,3.83,4.77,4.34,4.52,8.05,6.16,11.79,6,4.72.19,9.38-2.62,15.3-6.27,8.39-5,15-12.11,22.6-16.74l.24-.11a.48.48,0,0,1,.17.26,56.06,56.06,0,0,1,1.27,11.47q0,.72,0,1.44a.7.7,0,0,1-.14.44c-2.21,1.68-8.13,6.09-7.55,9.26a2.46,2.46,0,0,0,.47,2,3.4,3.4,0,0,0,3.29,1.58c1.93.33,3.82-1.42,4.95-3.53,1.52-2.45,1.3-5.19,2.93-7.31a194.22,194.22,0,0,0,30.83-22.19c-3.07,8.09-12.35,32.35-12.56,32.91a2.22,2.22,0,0,0,.36,0c-.2.54-.33.88-.36.94a3,3,0,0,0,1-.07l0,.07c3.27.3,3.7-4,5-6a88.1,88.1,0,0,1,8.15-10.32c2.74-2.7,7.19-7.91,11.47-8.28.11,0,.21,0,.32,0a2.76,2.76,0,0,1,1.85,2.57,13.81,13.81,0,0,1-.59,2.79c-.78,3.52-4.46,9.39-4.17,13.73a5.54,5.54,0,0,0,.86,3.59,4.73,4.73,0,0,0,3.23.77c6.5.42,18.37-9.73,23-12.76a18,18,0,0,0-.95,5.8c-.17,3.41,1.38,4.57,3.92,4.39,3.45.28,9.43-2.82,15.41-6.18,4.86-2.69,9.1-5.7,13.58-8.37a13.94,13.94,0,0,1,.2,2.2c0,1.67-.17,3.44-.14,5.14-.05,3.79.48,7.39,4.71,8.89a9.06,9.06,0,0,0,3,.31c4.39.18,10.23-2.27,11.45-5.78a.56.56,0,0,0-.43-.67,2.22,2.22,0,0,0-.63,0c0-.09.08-.17.11-.26a.57.57,0,0,0-.42-.67c-2.22-.35-4.3,2.1-6.47,2.92-3.08,1.31-5.13,1.19-6.47.24-2.06-2.87-1.35-8.78-.71-12.55.11-1,.56-1.9.65-2.78a2.9,2.9,0,0,0-1.3-1.85,9,9,0,0,0-1.72-1.55c-20.2-12.74-34.25,10.94-52.08,19-1.89.78-4.64,2.08-6.11,1.7a5,5,0,0,1,.35-2.78c.94-4.54,7.38-15.64,2.66-18.83-.82-1.21-2.37-1.92-5-1.82-3.91.8-9.33,6.21-11.94,9.18-.43.62-1.06,1.55-1.69,2.33,2.89-8,9.19-24.68,9.4-25.39a15.28,15.28,0,0,1,1.26-1.85c3.53-4.72,10.88-11.16,11.19-15.41.16-1.42-.33-3.3-1.59-4a2.38,2.38,0,0,0-2.48-1.21c-1.82.53-4.2,4.07-5.45,6-2.79,4.52-3.66,10.08-6,14.63-4,6.86-27.42,25-35.15,27.79l-.15,0c-.38-3-1.51-11.56-1.73-14.26.92-2,5.29-5.59,6.77-8.6a2.83,2.83,0,0,0-.9-4,3.52,3.52,0,0,0-3.1-1.53c-2.93.2-5.48,4-6.24,6.85a5.71,5.71,0,0,0-.16,2c0,.78,0,1.63.08,2.46a3.62,3.62,0,0,1-.35,1.48c-.74,1.17-5,4.58-7.34,6.48-3.4,2.74-8,6.09-14.2,10.16-8.46,5.22-16.47,11.2-24.24,4-.33-.35-.65-.71-1-1.11a17.76,17.76,0,0,1-2.71-4.08l.21-.21c6.07-2.91,12.57-5.63,16.36-11.09,1.73-2.22,2.82-5.82,1.05-7.9a3.65,3.65,0,0,0-.7-.61l-.25-.33c-4.66-5.54-20.56,9.06-24.24,11.69a4.06,4.06,0,0,1-.72.46c1.36-3.16,9.69-22.41,12.81-29.64,3.64-4.44,19.19-18,12.92-23.48l-.16,0a4.77,4.77,0,0,0-.79-.91c-2-.68-5.52,3.49-7.38,6-4.14,5.29-4.94,12-8.86,17.35-10.6,11.48-24.74,23-36.94,33-4.93,3.66-10.26,8-15.36,9.07a6.39,6.39,0,0,1-5-1,5,5,0,0,1-.94-3.47c.58-9.21,9.32-9.3,15.5-13.5,1.88-1.23,4.78-3.12,5.13-4.83a3.65,3.65,0,0,0-1.52-2.27c-1.33-1.88-4.49-2.55-6.73-1.56-5.28,2-8,9.41-11.62,11.91-5.86,3.19-17.23,6.75-21.55,8.09-1.19.32-3.22.85-4.62,1.13,1.11-2.23,3.36-4.09,4.54-6.34,2.59-4.54,3.55-9.65.49-11.86-1.21-1.66-3.66-2.5-7.79-1.85-2.71.37-4.93,2.32-7.35,3.48,2-3.2,5-5.92,7.14-9s6-8.48,6.05-11.54a6.06,6.06,0,0,0-2.29-4.11,5.47,5.47,0,0,0-4.4-2.17c-2,.3-2.67,1.37-4.17,3.05-5.1,6.63-10.73,17.37-13.4,23.13-1.63,3.84-4,9.55-5.3,11.37C281.65,776.26,279.62,782,279.62,782Zm108.73-2.82a15.7,15.7,0,0,1-1.74-1.32,3,3,0,0,1-.37-.5c-.05-1,3.22-3.4,5.17-4.8,2.89-2.07,11.73-8.17,15.23-8.73a2.06,2.06,0,0,1,1.76,1.66c0,.1,0,.21,0,.31a13.13,13.13,0,0,1-3.08,5.54C402.83,773.88,391.49,780.75,388.35,779.21Zm-6,.62a1.71,1.71,0,0,1,1.15-.87,2.6,2.6,0,0,1,1.67,1.1A12.5,12.5,0,0,1,382.31,779.83Zm22.61-51.53c.41-.54,2.25-3,3.5-3.72l0,0c-.61,2.53-4.76,8.33-7.35,10.92A25.77,25.77,0,0,1,404.92,728.3Zm-54.33,33.51a1.69,1.69,0,0,1,1.14.73,1.58,1.58,0,0,1,.15.24,3.65,3.65,0,0,1-.4.52c-.67.76-6.37,4-9.1,5C343.76,765.86,347.85,762.22,350.59,761.81Zm-43-20.75.11.08a3.27,3.27,0,0,1,1,2c-.3,2.57-2.75,5.48-3.9,7.39A109.67,109.67,0,0,1,290.74,767c.05-.15.1-.3.15-.43a170.23,170.23,0,0,1,7.89-15.28c1.44-2.09,5.05-9.81,8.12-10.59A2.06,2.06,0,0,1,307.57,741.06Zm-5.77,40.5a2.83,2.83,0,0,1-.39.08l-17.74,1.83c1.67-6.12,9.7-11.91,15-15.33,2.73-1.62,7.24-4.71,11-5a4.72,4.72,0,0,1,2.6.93l.07.06a3.93,3.93,0,0,1,.78,2.12C312.7,771.86,305.55,780.5,301.8,781.56Zm-21.36,10.06c-.46-.77-.38-1.76.68-3,3-2.68,11.44-2.63,16.45-3.37-.48.87-1.79,1.38-2.58,2-2.37,1.72-6.77,4.77-9.62,5.2A7.74,7.74,0,0,1,280.44,791.62Zm169.8-33.8c-.5,2.19-3.67,6-4.88,6.26-.31-2,1.7-6.33,4.21-6.78h.06A.8.8,0,0,1,450.24,757.82Zm-10.71,36.31c-.14-1.56,2.83-4.41,4.14-5.2a.89.89,0,0,0,0,.14C443.39,790.65,441.65,794.7,439.53,794.13Zm79.23-2.88c-.35-1.29.22-3.14.43-4.29,2.08-8.19,11.46-14,20.47-14.19a19.24,19.24,0,0,1,5.41.86,14.28,14.28,0,0,1,3.89,1.93c-.23.24-.55.44-.73.61-2.36,2.16-8.34,5.55-12,7.64-2.24,1.24-10.81,5.84-15.37,7.12A6.38,6.38,0,0,1,518.76,791.25ZM495.31,738.9c-.39,2.15-4,6.79-5.78,8.72,1.12-3,2.43-6.56,4.47-8.54a3.5,3.5,0,0,1,1-.72A.91.91,0,0,1,495.31,738.9Z"/><path class="cls-1" d="M1006.13,785.19l.08-.06a.27.27,0,0,0,.11-.22c0-1-1.31-.67-2.08-.48-5.25.89-20.75,13-25.72,10.12-.76-1.27-.86-3.48,0-7,.35-2.15,1.74-5.68.78-7.17a2.09,2.09,0,0,0-.68-.22,1.83,1.83,0,0,0-.27-.72,2.24,2.24,0,0,0-2-.09c-5.67,4.32-10.76,9.15-17.05,12.74-5.58,3.15-8.48,3.84-9.93,3.15-1.29-2.59,1.1-8.78-.5-11.74a2.07,2.07,0,0,0-.73-.47,4.16,4.16,0,0,0-.22-.48c-.86-.83-2.07-.67-3.29-.56-1.84.23-3.93.81-5.76,1.13a11.9,11.9,0,0,1-2.52.24c.06-.18.14-.36.19-.51.52-1.18,1.27-2.33,1.06-3.66a2.1,2.1,0,0,0-1.19-1.69c-1.6-3.33-8.9,1.42-8.22,4.77-.21,1.1.23,2.15,1.75,2.86a1,1,0,0,1,.49.29c-.82,1.58-4.54,4.08-5.86,4.93-2.52,1.66-5.9,3.14-8.64,3a3.63,3.63,0,0,1-1.41-.52c-1.76-2.68-.45-8.24-1.28-11.13a3.54,3.54,0,0,0-1.48-2.24c-1-1.41-3.06-2.08-4.84-2.52-7.26-1.45-13.15-.78-19.1,2.66-1.75,1.14-3.84,2.93-5.61,4-1.91.82-4.19.9-6.32,1.23a124.81,124.81,0,0,0-17.38,2.91h-.07c.73-2.34,1.14-4.21-.49-5-.31-.7-1-1.17-2.38-1.33a18.13,18.13,0,0,0-13,3.32l-6,4.2,0-.08c2.43-4.75,6-11.9,8.56-16.77,1.87-3.49,18.42-22.09,14.29-24.46a1.82,1.82,0,0,0-.33,0,1.28,1.28,0,0,0-.62-1c-2.32-.28-6.68,6.08-8.55,9-2.72,4.09-4.09,9.41-6.62,13.59-5.47,7.64-26.62,20.14-38.09,24.56-4.44,1.67-7.1,1.79-8.54.94-1.63-2.82,1.37-9.14,4.3-14,.66-1.44,2.53-3.87.45-4.37,0-.53-.4-.92-1.37-1-2.94-.16-9.49,5.47-13.87,4.11a19.5,19.5,0,0,1,1-2.33c1.2-2.5,2.15-5.43.07-6.6-.46-.89-1.51-1.47-3.5-1.47-3,0-4.3,3.78-4.12,6.4a6.36,6.36,0,0,0,.13,1.84c.18,1,1,1.55,1.58,2.26a1.33,1.33,0,0,1,.23.44c-1,3.76-12,10.88-14.27,12.16-4,2-9.49,3.36-12.35,1.28a7,7,0,0,1-.91-4.91c-.21-1.85,1.88-7.06,3.18-10.72h0c.79-2.82.72-1.5.79-5.17,0-.46,0-.47-.45-.82l-.09-.09-.41-.2c0-.29-.11-.36-.45-.66l-.08-.08c-2.76-1.6-7.3-2.15-10.48-2.31-6.16.22-16.1,3.93-21.34,7.22-9,5.54-17.29,17.18-29.09,16.51A18.53,18.53,0,0,1,685.25,788a9.75,9.75,0,0,1-2-3.18c-1.46-4.14-1.77-11.41,1.79-14.86,11.39-8.92,20.45-22.14,30.19-32.77,2.47-2.8,4.58-5.53,6.86-8.65,6.61-8.84,49.91-64.74,39.31-73.63-2.05-2.4-5.75-4.32-11.39-3.26-11.84,2.22-44.5,48.18-49.7,59.14-.83,1.68-1.55,3.58-2.33,5.24-.13.2-.38.09-.8,0-23.82-6.6-52.77,25.35-62.72,43-3.81,7.1-6.06,14.71-8.69,22.23-.35.76-.39,1.84-1.12,2.32a103.74,103.74,0,0,1-15.16,5.46c-6,1.59-12.86,3-17.35,5-.44.21-1,.39-1.27.84a.77.77,0,0,0,0,.78H591a1.58,1.58,0,0,0-.12.15.77.77,0,0,0,0,.78,3.11,3.11,0,0,0,1.18,0,8.38,8.38,0,0,0,2.12-.14c4-.64,10.34-2.39,14.55-3.56,5.06-1.38,10-3.38,15-4.84l1-.3a11.14,11.14,0,0,0-.1,2c-.27,5.93,4.39,7.91,9.72,7.78a25.68,25.68,0,0,0,11.37-2.61c11-4.38,20.06-11.86,29.58-18.48,1.08-.74,2.23-1.55,3.36-2.27,0,1.25-.06,2.52,0,3.8,0,5.12.43,10.29,5.27,13.37a22.92,22.92,0,0,0,13.78,4,22,22,0,0,0,14-4.56,13.62,13.62,0,0,1,2.23-1.32c0,.19,0,.35.05.52a2.33,2.33,0,0,0-.05.34c0,3.48,2.32,4.65,5.61,4.52,7.47.33,21.62-7.64,25.3-9.89,1.52-.85,6-3.81,8.17-4.75-.78,3.1-2.22,6.57-2.07,9.79a9,9,0,0,0,.24,2.65c1.67,3.59,4.66,4.84,8.1,4.7,7,.28,16.26-5.82,20.2-9.83,1.85-2,4.75-5.41,5.23-5.75a1.9,1.9,0,0,1,.25,0,32.56,32.56,0,0,0,3.51.59c.14,0,.27,0,.41,0l.54,0c2.89,0,5.65-1.8,8.37-2.76a25.05,25.05,0,0,1-1.62,3.68c-1.47,2.81-3.16,6.37-3,9.17-.16,2.48.85,4.54,4.31,5.25a11.14,11.14,0,0,0,1.92.08c4.48.19,9.5-2.34,13-3.9,10.15-4.67,17.76-10.69,26.76-16.59-3.34,6.24-6.4,12.85-10.31,18.71-1.26,1.61-3.35,2.82-3.13,5a.88.88,0,0,0,0,.16,3,3,0,0,0,0,.79c0,.46.14,1.1.6,1.25a11.51,11.51,0,0,0,4.62.75,19.32,19.32,0,0,0,7.94-1.67c4.89-1.76,9.18-6,13.48-9a16.69,16.69,0,0,1,3.17-1.78c1.9-.72,11.86-2.89,18.7-4.06.88-.11,3.5-.62,5.12-.73h.09c-.82,1.86-2.34,4-2.08,6a3.68,3.68,0,0,0,0,1.1c.85,2.42,2.75,3.16,5,3,3.66.24,8.63-2.51,11.22-4,5.7-3.15,10.55-7.51,16-11a10.32,10.32,0,0,1,.64,4c0,.62,0,1.23,0,1.84,0,3,.07,6,3.09,7.51a8,8,0,0,0,3.84.69c6.2.31,13.5-6,17.2-9.72.34-.27.63-.15,1.85-.33l10-1.18c0,.22,0,.45.05.68-.06,2-.47,4.16-.41,6.2a7.64,7.64,0,0,0,1.37,5.18,4.45,4.45,0,0,0,3.57,1.12c5.68.44,15.32-7.23,18.21-9.37,1.66-1.22,5.63-5,7.53-5.91-.42,2.59-1.89,5.05-1.74,7.76,0,.07,0,.14,0,.22a5.77,5.77,0,0,0,0,.72c.2,4.89,2.38,6.2,5.24,6,2.63.18,6.06-1.3,9-2.48,2.32-.95,16.41-7.67,17.88-9a.26.26,0,0,0,.12-.22C1007.26,785.21,1006.72,785.12,1006.13,785.19ZM783,777.32l0,0c-.91-1.69-.21-4.65,1.48-5.08a1.1,1.1,0,0,1,.84.91C785,774.91,783.46,777.31,783,777.32Zm-65.77,14.56c-1.16-2.42,2.39-7.41,4.23-9.45,3.75-4.3,9.78-7,16-9.26A34.46,34.46,0,0,1,747.8,771a19.21,19.21,0,0,1,7.64,1.74.79.79,0,0,1,.31.52,6.75,6.75,0,0,1-1.94,2.39c-2.47,1.88-7.08,4.37-10.65,6.66-6.13,3.6-16.2,9.32-23.22,10A5.38,5.38,0,0,1,717.26,791.88Zm-88.32,1.79a4.85,4.85,0,0,1-.48-.73c-.88-1.86-.91-5.41.17-6.75a7.79,7.79,0,0,1,2.66-1.5c3.71-1.57,8.71-3.08,12.56-4.68a164.45,164.45,0,0,0,39.78-25c-.86,3.38-2.48,9.7-3.11,12.1-13.31,10.54-27,23-44,27.58C633.85,795.2,630.92,795.19,628.94,793.67Zm43.12-68.94c4.72-2.7,12.46-6.65,19-6.83a11,11,0,0,1,5.18,1.32,1.23,1.23,0,0,1,.3.59,8.35,8.35,0,0,1-.18.82c-.33,1.25-.78,2.66-1.41,4.6-2.24,6.74-6.17,17.2-8,20.4a17.18,17.18,0,0,1-2.33,2.93c-15.34,14.75-34.79,26.11-55.25,33.16C635,758.26,651.09,737.92,672.06,724.73Zm28-1.31a32.72,32.72,0,0,1-1.37,5.71,25.47,25.47,0,0,1-4.38,7.92c1.33-4.33,3-8.58,4.64-12.79a9.06,9.06,0,0,1,.82-2.06A3.58,3.58,0,0,1,700.07,723.42Zm50.58-68c1.35-.43,3.63,0,5,.14,4.15,1.7,6,5.71,4.45,9.59-8.57,21.42-43.42,66.12-59.39,83.19l-.09.1c-4.45,4.8-10.43,12.59-15.21,16.38l-.17.16c1-4.78,1.64-10.92,4.09-15.36,1.5-2.55,5.94-6.49,7.8-9.23.95-1.35,1.82-2.7,2.67-4.17,2.68-4.71,5-10.55,3.56-14.88-.42-1.1-1.79-2-1.81-3.29C705.58,706.9,738.73,659.12,750.65,655.37Zm181,127.37-.4-.46L934,779.7l.36.19C933.83,781.18,932.94,782.91,931.62,782.74Zm-50.88,11.17c-.82-2.11,2.2-6.38,4.14-8.29a24.92,24.92,0,0,1,16.89-7,23.42,23.42,0,0,1,5.71.81c-.16.16-.39.3-.59.47a89.76,89.76,0,0,1-10.82,7.85c-4.76,3.05-9.61,5.8-11.76,6.2A6.35,6.35,0,0,1,880.74,793.91Zm-28-4.9c-1.71,1-4.11,1.53-7.4,2.43-2.7.57-5.23,1.37-7.85,1.74a36.17,36.17,0,0,1,7.38-6,21.94,21.94,0,0,1,8.78-3.14,3.77,3.77,0,0,1,2.28.78s0,.09.05.14A9,9,0,0,1,852.7,789ZM829,801c1-2.37,12.11-6,17.08-6.84C842.41,797.54,833.32,802.51,829,801Z"/><path class="cls-1" d="M979.15,773c1,0,1.25-.78,1-1.57a2.21,2.21,0,0,0-1.83-2.63c-1,0-1.25.78-1,1.58A2.2,2.2,0,0,0,979.15,773Z"/><path class="cls-1" d="M281.42,779c1.68-1.46-5.6,5-7.23,6.75-5.58,6.17-18.09,16-26.45,8.63-7.23-6.42-3.74-21.17-1.55-29.17,1.09-4,3.18-11.7,5.17-15.05,1.13-1.91,5.66-5.65,7.47-7.65a94.66,94.66,0,0,0,12.5-16.76c1.58-2.87,3.55-8.88.66-11.41-2.46-2.15-4.05.12-5.57,1.94a80.75,80.75,0,0,0-10.19,15.55c-2.21,4.65-3.85,10.2-6.38,14.63a25,25,0,0,1-3.47,3.42C228.06,766,206.66,781.59,183.84,791c-9.94,4.08-26.13,10.37-36.86,8.18-3-.63-7.93-4.56-9.27-7.39a24.88,24.88,0,0,1-1.48-6.78c-.1-.85-.64-4.26,0-4.67a33,33,0,0,1,3.38-.58c6.21-1.37,14-4.36,20.12-6.57,25.7-9.33,54-22.28,75.58-38.91,7.68-5.93,16.25-13.09,22-20.89,1.19-1.6,5.44-7.91,5.78-9.48.87-4-.81-12.5-3.77-15.59a26.3,26.3,0,0,0-16.63-7.4c-17.6-.67-39.53,10.46-53.09,20.88a274.47,274.47,0,0,0-22.83,19.52c-6.7,6.47-13.77,16.12-19.21,23.86a209.7,209.7,0,0,0-11.91,18.72c-2.33,4.3-2.9,9.27-3.45,14.06-11.08.92-22.19,3.94-33.28,1.08-7.61-2-18.9-7.37-21.77-15.12-.66-1.77-2.39-8.09-2.31-9.76,0-.77.83-2.23-.48-2.56-1.6-.39-1.66,3.07-1.62,4.1.35,7.69,3.12,13.8,9.42,18.38,9,6.53,19.24,9.28,30.35,9,6.58-.18,13-1.66,19.59-2.24.57,4.54.54,10,3.29,13.9,7,9.84,17.48,9.48,28.24,7.16,17.09-3.67,36-13.28,50.6-22.59,10.23-6.51,18.84-13.53,28.08-21.21a40,40,0,0,1,3.87-3.24c-1.38,4.28-2.9,8.53-4.08,12.88-2.39,8.86-4.76,19.89,1.37,27.84,6.78,8.82,18.3,5.28,25.44-1l2.85-2.35c1.78-2.17,5.8-4.32,7.43-6.34C280.32,784.45,279.89,780.32,281.42,779Zm-23.65-43.65a66,66,0,0,1,9.15-15.1c.34-.43,2.58-3.09,2.78-3.19s.39,0,.55.25c-.24,1.37-.13,3-.42,4.33-.89,4.18-8.78,13.59-11.87,17L255.62,741C256.28,739.07,257,737.18,257.77,735.34ZM136.43,773.92c1.54-10,9-17.76,13.82-26.43,6.71-8.3,12.28-17.26,20.19-24.52a295.46,295.46,0,0,1,23.16-19.2c11.8-8.68,34.87-19.33,49.82-17,3.59.56,9.64,3.81,11.57,6.9,1.21,1.94,1.9,5.86,2.09,8.15.16,1.83.32,3.07-.64,4.67a69.85,69.85,0,0,1-9.31,12.19c-1.83,1.94-3.86,3.85-5.85,5.64-25.34,22.8-60.1,38.71-92.5,49.38-4.17,1.37-8.22,3.25-12.67,3.64C136.27,776.21,136.26,775.05,136.43,773.92Z"/><path class="cls-2" d="M592.05,402.69c1.22,1.93.27,3.18-1.37,4.5-60.78,50-74.62,151.87-46.45,222.41,1.17,5.19-1.49,4.54-5.44,5.06-4.64.88-9.31,1.25-14.12,1.86-48.22,4.6-99.51-3.71-140.79-30-29.33-18.12-51-60.07-52.35-94.19-1.68-21.45,1.45-42.89,5-64,5.63-19.42,12.82-39,23-56.52,25.78-60.24,78.59-101.56,136.21-130.4,3.11-1.33,6.91-4,10.2-3.16,10.13,12.8,26.16,32.59,36.43,45.79,10,13.21,16.57,28.45,23.26,43.48C573.78,366.25,583.83,384.15,592.05,402.69Z"/><path class="cls-3" d="M770.44,391.34c2.27,130.93-100.48,219.07-222.5,242a4,4,0,0,1-3.42-.53c-31.78-73.61-17-174.35,45.32-226.74C614.61,366.55,734.82,368.22,770.44,391.34Z"/><path class="cls-4" d="M617.09,234.29c8.92.27,18.11,1.6,27,2.86C717,244.09,769.6,318.13,771,388.79c-.06,1.8-.93,2.64-3,1.83-2.78-.87-5.53-1.85-8.27-2.83-37.36-14.62-99.79-13.49-138.08-1.9-9.39,3.16-17.42,7.91-26.57,15.66-.89.77-2,1.88-3.1,1.58a3.82,3.82,0,0,1-1.69-1.95q-2.56-5.25-5.35-10.38c-17.49-28.93-25.72-62.88-46.87-89.59-8.66-10.84-30-37.78-34.09-43,9.67-4.76,21.21-7.85,31.52-11.42,13.41-3.64,26.56-8.85,40.31-11C589.58,235.3,603.35,233.38,617.09,234.29Z"/><path class="cls-5" d="M567.77,243.48c-1.2,1-3.15-.91-2.24-2.15C566.29,240.31,568.65,242.69,567.77,243.48Z"/><path class="cls-6" d="M698.93,295.13c7.05,6.15,12.48,24.33,11.43,33.38-.4,3.5-8.27,18.25-10.5,22C689,368.85,672,386.38,656.57,401c-43.12,41-101.73,75.48-155.38,101.43-12.71,6.14-29,14.36-42.18,18.69-1.36.45-6.59,1.49-7.19,2-1.23,1,.66,8.38,1.05,10.22.93,4.36,2.39,10.77,4.63,14.55,3.51,5.93,14.88,13.5,21.63,14.22,23.68,2.53,57.39-14.71,78.06-25.78C604.6,511,647.64,472.25,683.9,432.93c1.62-1.76,5.92-6.32,6.78-8.24,4.55-10.26,6.92-22.77,10.74-33.44,4.25-11.89,11.72-25.74,18.78-36.24,2.89-4.32,5.87-9.64,11.63-5.45,6.81,4.93,3.8,18.52,1,25.15-5.67,13.37-14.93,27.69-23.54,39.41-3.5,4.76-12.5,13.94-14.55,18.37-3.61,7.77-6.5,25.19-8,34.09-3.07,18-7.51,51.09,9.49,63.61,19.65,14.47,42.55-11.71,55.44-24.55,1.68-1.67,5.33-6.65,7.69-6.92,4.38-.5,5.31,2.79,3.16,6.09-3.12,4.79-11.37,10.36-14.75,15.47l-5.69,5.78c-14.12,15.19-38.33,25.41-54.86,7.53-14.93-16.14-12.12-40.8-8.81-60.75,1.62-9.78,4-19.43,6.11-29.1-2.92,2.29-5.12,5.29-7.69,7.93-18.39,18.81-35.55,36-56.33,52.49-29.72,23.53-68.53,48.62-104.76,60.32-22.79,7.36-45.43,10.41-62.62-9.68-6.78-7.92-7.86-19.94-10.05-29.78-14,2.67-27.72,7.3-41.93,9.11-24,3-46.71-.8-67.58-13.2-14.61-8.69-21.89-21.49-24.26-38.28-.32-2.25-.9-9.86,2.63-9.33,2.91.44,1.49,3.82,1.58,5.51.17,3.68,5.25,17.15,7.05,20.91,7.86,16.36,33.44,25.8,50.31,28.48,24.61,3.91,48-5.07,71.8-9.46.2-10.62.39-21.63,4.51-31.55,5.73-13.77,14.55-30.54,21.85-43.59,10.13-18.12,23.41-40.79,36.54-56.4a601.49,601.49,0,0,1,45.32-47.67c27.15-25.73,72.26-54.81,110.5-57.09C673.91,281.71,689.42,286.84,698.93,295.13Zm-20,69.27a154.32,154.32,0,0,0,17.59-28.71c1.73-3.72,1.13-6.4.41-10.38-.91-5-3.22-13.42-6.25-17.41-4.82-6.36-18.61-12.21-26.49-12.68-32.85-1.92-80.54,26.37-104.26,47.92a635,635,0,0,0-46.07,47c-15.61,17.59-25.77,38.43-38.54,58-8.65,20-23.14,38.55-24.35,60.9-.14,2.51.13,5.06,0,7.56,9.55-1.8,17.93-6.77,26.65-10.67,67.9-30.31,139.78-72.59,189.82-128C671.41,373.66,675.39,369.05,678.94,364.4ZM728.71,366c.34-3-.25-6.53,0-9.59-.41-.41-.56-.88-1.26-.43-.42.27-4.68,6.57-5.34,7.59a146.36,146.36,0,0,0-16.63,35.06c-1.3,4.21-2.42,8.5-3.46,12.79l4.57-5.52C712.57,397.69,727.66,375.38,728.71,366Z"/></g></svg>