<?xml version="1.0" encoding="UTF-8"?><svg id="_1080_x_1080_px_Logo_Set_1" xmlns="http://www.w3.org/2000/svg" viewBox="0 0 1080 237.01"><defs><style>.cls-1{fill:#fff;}</style></defs><path class="cls-1" d="M250.6,166.4c-.33,1.11-.84,2.27-1.26,3.26-6.02,13.52-13.57,26.54-19.29,40.16-.48,1.14-1.1,2.3-1.37,3.55-.07.38-.07.72.02.99,0,.02-.01.04-.02.06-.12.61-.08,1.13.28,1.36.31.14.67.09,1.01-.04.01.01.02.03.04.04.71.32,1.68-.33,2.16-.7.41-.38.58-.74.88-1.26,1.3-2.34,3.33-7.29,4.67-10.44,2.79-6.25,5.89-12.36,9.06-18.45.9-1.63,1.77-3.37,2.75-4.94,2.56,1.35,4.5,2.02,6.67,1.91,1.21.08,2.45-.09,3.89-.54,6.65-1.99,11.82-8.76,18.29-12.09,4.29-1.42,9.51-1.61,13.79-2.94,5.14-1.56,9.98-3.88,14.93-5.9.47-.19.94-.38,1.41-.56.29-.1.59-.24.88-.35.04.02.08.05.11.08-.03.07-.06.15-.07.24-.66,2.68-1.72,4.36-1.51,6.38-.08.82.01,1.66.41,2.62,1.6,3.92,4.91,5.82,8.73,5.63,1.55.08,3.21-.2,4.89-.85,6.54-2.31,12.51-7.27,17.74-11.52,11.78-9.24,22.22-21.15,34.38-29.86-3.13,8.01-21.35,42.85-20.4,48.19-.16,1.43.2,2.06,1.26,1.59,0,0,.01-.01.02-.02.21.21.54.23,1.03.02.6-.39,1.11-1.19,1.43-1.8,1.08-2.2,3.86-11.52,5.54-13.38,1.13.53,2.38.6,3.66.57,1.08.04,2.2-.07,3.28-.1.88.03,1.72.17,2.47.55,1.31,1.09,2.95,3.91,4.25,5.3,4.82,5.03,8.95,6.84,13.11,6.67,5.24.21,10.43-2.91,17-6.97,9.33-5.51,16.72-13.46,25.12-18.61.08-.04.17-.09.26-.12.09.07.16.17.19.3.89,4.2,1.38,8.46,1.41,12.75,0,.53-.01,1.07-.04,1.6-.01.21-.06.37-.15.49-2.47,1.86-9.03,6.77-8.39,10.29-.14.79,0,1.54.52,2.21,1.17,1.5,2.44,1.96,3.66,1.76,2.14.36,4.24-1.58,5.5-3.92,1.69-2.72,1.44-5.76,3.25-8.13,12.35-7,23.64-15.49,34.27-24.66-3.42,8.99-13.73,35.95-13.96,36.58.14.01.27,0,.4,0-.23.61-.37.98-.4,1.05.4.04.75,0,1.08-.07,0,.02-.02.06-.03.07,3.64.34,4.12-4.49,5.56-6.72,2.18-3.44,6.22-8.39,9.06-11.47,3.04-3.01,7.98-8.8,12.74-9.21.12.01.24,0,.35.02,1.41.54,1.96,1.62,2.06,2.86-.08,1.06-.38,2.16-.67,3.1-.87,3.92-4.95,10.44-4.63,15.27-.08,1.49.17,2.86.96,3.99.97.71,2.19.96,3.59.85,7.23.47,20.42-10.82,25.62-14.18-.82,2.75-1.15,4.87-1.06,6.44-.18,3.79,1.53,5.09,4.36,4.88,3.84.32,10.48-3.14,17.13-6.87,5.39-2.99,10.11-6.34,15.09-9.3.14.77.2,1.59.22,2.44-.03,1.86-.19,3.83-.15,5.72-.06,4.21.53,8.21,5.23,9.88.99.29,2.14.4,3.35.35,4.88.2,11.37-2.53,12.72-6.43.08-.38-.14-.63-.47-.75-.24-.04-.47-.04-.7-.02.04-.09.09-.19.13-.28.08-.38-.14-.63-.47-.75-2.46-.39-4.77,2.33-7.19,3.25-3.42,1.45-5.7,1.32-7.2.26-2.28-3.19-1.49-9.76-.79-13.94.12-1.15.62-2.12.73-3.1-.04-.8-.73-1.47-1.45-2.05-.48-.67-1.3-1.24-1.91-1.73-22.45-14.15-38.07,12.17-57.89,21.07-2.1.87-5.15,2.31-6.79,1.89-.18-.66-.1-1.64.39-3.1,1.05-5.05,8.21-17.37,2.96-20.93-.91-1.34-2.64-2.13-5.58-2.02-4.35.88-10.37,6.9-13.27,10.2-.48.69-1.18,1.73-1.88,2.6,3.21-8.94,10.22-27.43,10.44-28.22.36-.63.83-1.31,1.4-2.06,3.92-5.24,12.09-12.4,12.44-17.13.18-1.57-.36-3.67-1.76-4.46-.57-.91-1.47-1.52-2.75-1.34-2.03.58-4.67,4.53-6.07,6.63-3.1,5.02-4.06,11.21-6.61,16.26-4.4,7.63-30.47,27.85-39.07,30.89-.05.02-.11.03-.16.04-.42-3.29-1.68-12.85-1.92-15.85,1.03-2.27,5.88-6.21,7.52-9.56,1.1-1.69.46-3.52-1-4.47-.67-1.03-1.94-1.75-3.45-1.7-3.25.22-6.09,4.39-6.93,7.61-.22.66-.22,1.43-.19,2.24-.04.86.05,1.81.09,2.73-.03.59-.14,1.16-.39,1.65-.82,1.3-5.51,5.09-8.16,7.2-3.78,3.05-8.85,6.78-15.78,11.3-9.4,5.8-18.31,12.45-26.95,4.39-.36-.39-.72-.79-1.08-1.23-1.05-1.41-2.43-2.93-3.01-4.53.06-.06.18-.17.24-.23,6.74-3.23,13.97-6.26,18.18-12.33,1.92-2.47,3.14-6.47,1.17-8.78-.23-.28-.5-.49-.78-.68-.08-.13-.17-.25-.27-.37-5.18-6.15-22.86,10.07-26.94,12.99-.21.17-.5.36-.8.51,1.51-3.51,10.77-24.9,14.23-32.94,4.05-4.93,21.34-19.96,14.36-26.1-.06-.02-.12-.02-.18-.03-.24-.36-.51-.7-.87-1.02-2.22-.75-6.14,3.89-8.2,6.67-4.6,5.88-5.49,13.33-9.85,19.27-11.78,12.77-27.51,25.53-41.06,36.66-5.49,4.07-11.4,8.92-17.08,10.08-2.18.36-4.13-.09-5.51-1.14-.77-1.02-1.16-2.34-1.04-3.86.64-10.24,10.36-10.33,17.23-15,2.08-1.37,5.31-3.46,5.7-5.37-.2-1.05-.83-1.89-1.69-2.51-1.48-2.09-4.99-2.84-7.48-1.74-5.87,2.25-8.94,10.46-12.92,13.24-6.51,3.55-19.14,7.51-23.95,8.99-1.31.36-3.57.95-5.13,1.26,1.24-2.47,3.73-4.55,5.04-7.04,2.89-5.05,3.94-10.73.55-13.19-1.35-1.84-4.07-2.77-8.66-2.05-3,.41-5.47,2.58-8.16,3.87,2.18-3.56,5.54-6.58,7.93-10,2.49-3.54,6.67-9.43,6.72-12.83-.08-1.62-1.09-3.38-2.54-4.56-1.21-1.47-3-2.53-4.89-2.41-2.2.33-2.97,1.52-4.64,3.39-5.66,7.36-11.92,19.31-14.9,25.7-1.81,4.27-4.49,10.61-5.89,12.64-1.28,1.85-3.53,8.26-3.53,8.26ZM371.45,163.27c-.57-.36-1.29-.9-1.94-1.46-.16-.19-.31-.38-.4-.56-.06-1.08,3.58-3.78,5.74-5.34,3.21-2.3,13.04-9.08,16.92-9.7,1.06.18,1.77.88,1.96,1.84-.02.12-.03.23-.06.35-.48,2.19-1.94,4.55-3.41,6.15-2.72,2.79-15.32,10.42-18.81,8.71ZM364.74,163.96c.29-.55.76-.85,1.28-.97.75.15,1.46.6,1.85,1.23-.67.02-2.1-.02-3.13-.26ZM389.86,106.69c.45-.6,2.51-3.36,3.89-4.14.02.02.03.04.05.06-.68,2.81-5.29,9.25-8.17,12.14.95-2.87,2.46-5.69,4.24-8.06ZM329.48,143.93c.51.1.95.35,1.27.81.07.1.12.19.17.27-.11.18-.25.36-.44.57-.75.85-7.08,4.39-10.11,5.58,1.53-2.72,6.08-6.77,9.12-7.23ZM281.66,120.87l.12.09c.69.67,1.03,1.43,1.12,2.24-.33,2.86-3.05,6.1-4.33,8.21-4.35,6.47-9.91,12.7-15.62,18.31.06-.16.12-.33.17-.48,2.57-5.81,4.43-9.16,8.77-16.98,1.6-2.33,5.62-10.9,9.03-11.77.25.07.5.19.74.38ZM275.24,165.88c-.19.05-.41.1-.43.1-.46.05-13.8,1.42-19.72,2.03,1.86-6.8,10.79-13.24,16.64-17.04,3.03-1.8,8.04-5.23,12.23-5.51,1.05.08,2.04.39,2.89,1.04l.07.07c.52.65.79,1.45.87,2.35-.43,6.19-8.37,15.8-12.55,16.97ZM251.51,177.07c-.51-.86-.42-1.96.75-3.28,3.39-2.99,12.72-2.92,18.29-3.75-.54.96-1.99,1.53-2.88,2.26-2.63,1.91-7.52,5.3-10.69,5.77-1.75.28-4.05-.08-5.48-1ZM440.24,139.5c-.56,2.43-4.08,6.66-5.42,6.95-.35-2.2,1.89-7.04,4.68-7.53.02,0,.04,0,.06,0,.36.09.58.3.68.58ZM428.33,179.86c-.15-1.73,3.15-4.9,4.6-5.78-.02.06-.03.11-.04.16-.28,1.75-2.21,6.25-4.56,5.62ZM516.39,176.65c-.38-1.43.25-3.49.48-4.76,2.32-9.1,12.74-15.55,22.75-15.78,2.06.04,4.09.35,6.02.96,1.51.52,3.07,1.18,4.32,2.14-.26.27-.61.49-.82.68-2.62,2.4-9.27,6.17-13.38,8.49-2.48,1.39-12.01,6.5-17.07,7.92-.94.27-1.74.39-2.3.35ZM490.33,118.47c-.43,2.39-4.46,7.55-6.43,9.69,1.25-3.35,2.7-7.3,4.97-9.5.39-.38.78-.64,1.13-.79.16.12.26.33.32.6Z"/><path class="cls-1" d="M1058.09,169.92s.06-.05.08-.07c.06-.06.11-.07.13-.25,0-1.11-1.46-.73-2.32-.53-5.83.98-23.06,14.48-28.58,11.24-.85-1.41-.95-3.86,0-7.77.38-2.38,1.94-6.31.86-7.96-.22-.13-.48-.2-.75-.25-.06-.3-.15-.57-.3-.8-.61-.36-1.55-.43-2.21-.1-6.31,4.8-11.96,10.17-18.95,14.16-6.2,3.51-9.42,4.27-11.04,3.51-1.44-2.89,1.23-9.76-.56-13.06-.25-.24-.52-.4-.81-.51-.07-.19-.15-.37-.24-.54-.96-.93-2.31-.75-3.66-.62-2.04.26-4.36.9-6.4,1.26-1.04.19-2,.29-2.81.26.07-.2.16-.4.22-.56.57-1.32,1.41-2.59,1.18-4.07-.18-1-.66-1.6-1.32-1.89-1.78-3.69-9.9,1.58-9.14,5.31-.23,1.22.26,2.39,1.96,3.18.26.08.42.19.54.32-.91,1.76-5.05,4.54-6.51,5.48-2.81,1.85-6.56,3.49-9.61,3.39-.62-.09-1.13-.3-1.56-.58-1.96-2.97-.51-9.16-1.42-12.37-.19-1.07-.82-1.87-1.65-2.48-1.1-1.57-3.39-2.31-5.37-2.8-8.07-1.62-14.62-.87-21.24,2.95-1.94,1.26-4.26,3.26-6.23,4.42-2.13.91-4.66,1.01-7.02,1.37-6.83.55-12.84,1.82-19.33,3.24-.02,0-.05,0-.07.01.81-2.61,1.27-4.68-.55-5.59-.34-.78-1.13-1.3-2.64-1.48-5.08-.62-10.37.63-14.46,3.69-1.81,1.28-4.62,3.25-6.63,4.67.02-.03.03-.06.04-.09,2.7-5.27,6.7-13.23,9.52-18.64,2.08-3.88,20.47-24.55,15.87-27.19-.11-.01-.24,0-.36.02-.08-.47-.29-.84-.69-1.07-2.58-.32-7.43,6.75-9.51,10.04-3.02,4.55-4.54,10.46-7.35,15.1-6.08,8.49-29.59,22.38-42.33,27.29-4.93,1.86-7.89,1.99-9.49,1.04-1.81-3.13,1.52-10.15,4.78-15.57.73-1.59,2.81-4.3.5-4.85-.05-.59-.45-1.03-1.52-1.13-3.27-.18-10.55,6.08-15.42,4.57.09-.63.66-1.51,1.06-2.59,1.34-2.77,2.4-6.03.08-7.33-.51-.99-1.68-1.64-3.89-1.64-3.29-.03-4.78,4.2-4.58,7.11-.05.75,0,1.45.14,2.05.21,1.05,1.11,1.73,1.76,2.52.12.15.2.31.26.48-1.13,4.18-13.36,12.1-15.86,13.51-4.47,2.21-10.55,3.73-13.73,1.43-.87-1.21-1.28-2.98-1-5.46-.24-2.05,2.08-7.85,3.53-11.91,0,0,.01.01.01,0,.88-3.13.8-1.66.88-5.74.01-.51-.06-.52-.51-.92l-.09-.09c-.14-.08-.31-.15-.46-.23-.02-.32-.12-.39-.5-.73l-.09-.09c-3.06-1.77-8.11-2.39-11.64-2.56-6.85.24-17.9,4.37-23.72,8.02-10.01,6.16-19.21,19.1-32.33,18.36-3.98-.33-8.47-2.03-11.57-4.8-.95-1.06-1.71-2.24-2.18-3.53-1.62-4.61-1.97-12.69,1.99-16.52,12.66-9.92,22.73-24.62,33.55-36.43,2.75-3.11,5.09-6.15,7.63-9.61,7.35-9.82,55.48-71.95,43.7-81.84-2.28-2.67-6.39-4.8-12.66-3.63-13.16,2.47-49.46,53.56-55.24,65.73-.92,1.87-1.72,3.98-2.58,5.83-.15.22-.42.09-.89.04-26.48-7.34-58.66,28.17-69.71,47.79-4.23,7.9-6.73,16.35-9.65,24.71-.39.84-.44,2.04-1.25,2.58-5.48,2.37-11.03,4.55-16.85,6.06-6.66,1.77-14.29,3.35-19.28,5.57-.48.24-1.16.43-1.41.93-.11.28-.16.65.04.87.02,0,.07.01.09.02-.04.05-.1.1-.13.17-.11.28-.16.65.04.87.23.09.7.1,1.31.05.47.07,1.28,0,2.36-.16,4.47-.71,11.5-2.65,16.17-3.95,5.63-1.54,11.11-3.76,16.72-5.39.36-.09.76-.22,1.17-.33-.11.81-.15,1.57-.11,2.27-.3,6.59,4.88,8.79,10.81,8.64,4.28.1,9.11-1.13,12.64-2.9,12.18-4.87,22.29-13.19,32.87-20.54,1.21-.83,2.48-1.73,3.74-2.53-.03,1.39-.06,2.81-.05,4.22-.04,5.69.48,11.44,5.86,14.86,4.38,3.09,9.88,4.58,15.31,4.43,5.6.06,11.21-1.6,15.54-5.07.8-.56,1.61-1.07,2.49-1.46,0,.2.03.39.05.57-.02.13-.05.26-.06.37.05,3.87,2.58,5.18,6.24,5.03,8.3.37,24.03-8.49,28.11-10.99,1.69-.95,6.69-4.24,9.08-5.28-.86,3.44-2.47,7.3-2.3,10.88-.04,1,.03,1.99.27,2.95,1.86,3.98,5.17,5.37,9,5.22,7.74.31,18.07-6.47,22.46-10.93,2.05-2.19,5.27-6.01,5.81-6.39.09-.02.19-.02.28-.03,1.3.15,2.74.68,3.91.66.15,0,.3-.03.45-.03.21.02.41.04.6.03,3.21.04,6.28-2,9.31-3.07-.34,1.33-1.09,2.49-1.81,4.09-1.63,3.12-3.51,7.09-3.29,10.19-.18,2.76.95,5.04,4.79,5.83.7.1,1.41.12,2.14.09,4.98.21,10.55-2.6,14.5-4.33,11.27-5.2,19.74-11.89,29.73-18.44-3.7,6.94-7.11,14.28-11.45,20.79-1.4,1.79-3.72,3.13-3.48,5.62,0,.06.01.12.02.18-.04.28-.05.57-.02.87.04.52.15,1.23.66,1.39,1.67.66,3.4.89,5.14.84,2.99.12,6.01-.71,8.82-1.86,5.44-1.95,10.21-6.63,14.98-9.96,1.23-.84,2.34-1.5,3.52-1.98,2.11-.8,13.19-3.21,20.79-4.51.97-.12,3.89-.69,5.69-.82.03,0,.07,0,.1.01-.91,2.07-2.6,4.51-2.31,6.68-.05.41-.05.82.02,1.22.95,2.7,3.05,3.51,5.52,3.36,4.07.26,9.6-2.79,12.47-4.4,6.34-3.5,11.73-8.34,17.81-12.22.58,1.32.7,2.87.72,4.48,0,.68-.02,1.36,0,2.04-.04,3.37.08,6.67,3.43,8.35,1.35.63,2.79.85,4.27.77,6.89.34,15-6.65,19.12-10.81.37-.29.7-.16,2.06-.37,3.02-.36,8.81-1.04,11.15-1.31.03.25.05.5.06.75-.07,2.21-.52,4.63-.45,6.89-.06,2.1.21,4.11,1.52,5.76,1.01,1,2.39,1.34,3.97,1.24,6.31.49,17.02-8.03,20.23-10.41,1.85-1.36,6.26-5.53,8.37-6.57-.47,2.88-2.1,5.61-1.94,8.62,0,.09.01.16.02.25-.01.27-.03.53-.02.8.22,5.43,2.65,6.89,5.83,6.69,2.93.2,6.73-1.44,10.05-2.76,2.59-1.06,18.24-8.52,19.88-9.97.06-.06.11-.07.13-.25,0-.71-.6-.81-1.26-.74ZM810.12,161.17s-.04-.03-.06-.04c-1-1.88-.23-5.17,1.65-5.64.55.14.84.51.94,1.01-.31,1.99-2.05,4.66-2.52,4.67ZM737.02,177.36c-1.29-2.69,2.65-8.24,4.7-10.5,4.17-4.78,10.86-7.77,17.76-10.29,3.91-1.36,7.68-2.37,11.48-2.47,2.78.06,5.58.62,8.49,1.93.16.07.28.3.34.58-.24.82-1.46,2.14-2.15,2.66-2.75,2.09-7.88,4.86-11.84,7.4-6.81,4.01-18,10.36-25.81,11.14-1.33.07-2.3-.1-2.97-.44ZM638.86,179.35c-.19-.25-.38-.52-.54-.81-.97-2.07-1.01-6.01.19-7.5.59-.67,1.44-.98,2.96-1.66,4.12-1.75,9.68-3.43,13.96-5.2,16.27-7.12,30.86-16.61,44.21-27.8-.96,3.75-2.76,10.78-3.46,13.45-14.79,11.71-30.02,25.57-48.96,30.65-2.91.58-6.17.56-8.37-1.12ZM686.78,102.73c5.26-3.01,13.86-7.4,21.16-7.6,2.09.06,4.05.51,5.76,1.46.18.2.28.42.34.66-.05.32-.14.63-.21.91-.36,1.39-.86,2.96-1.57,5.11-2.49,7.5-6.86,19.12-8.93,22.68-.7,1.17-1.52,2.1-2.6,3.26-17.05,16.39-38.67,29.02-61.41,36.85,6.3-26.07,24.14-48.68,47.44-63.34ZM717.92,101.26c-.15,2.12-1.07,4.6-1.52,6.35-1,3.06-2.74,6.16-4.87,8.8,1.48-4.81,3.31-9.54,5.16-14.22.19-.46.45-1.68.91-2.29.18.41.29.86.33,1.35ZM774.13,25.63c1.5-.47,4.03.04,5.5.16,4.61,1.89,6.67,6.35,4.94,10.66-9.52,23.81-48.26,73.5-66.01,92.47l-.1.11c-4.95,5.34-11.59,13.99-16.91,18.21-.06.05-.12.11-.2.18,1.08-5.32,1.82-12.13,4.55-17.07,1.68-2.83,6.6-7.21,8.68-10.26,1.06-1.5,2.02-3,2.96-4.64,2.99-5.23,5.61-11.73,3.96-16.54-.47-1.22-1.99-2.26-2.01-3.66,4.54-12.33,41.38-65.44,54.64-69.61ZM975.27,167.19l-.44-.51,3.05-2.87.39.21c-.54,1.43-1.53,3.35-3,3.17ZM918.72,179.61c-.91-2.34,2.45-7.09,4.61-9.21,4.83-4.82,11.79-7.61,18.77-7.75,2.15.04,4.28.33,6.35.9-.18.18-.43.34-.66.52-1.82,1.78-6.81,5.38-12.03,8.73-5.29,3.39-10.68,6.45-13.06,6.89-1.89.36-3.16.29-3.98-.07ZM887.56,174.16c-1.91,1.17-4.57,1.71-8.23,2.7-3,.64-5.81,1.53-8.73,1.94,2.39-2.53,5.15-4.79,8.21-6.66,2.31-1.45,6.48-3.28,9.75-3.49,1.02.06,1.9.32,2.54.87.03.05.04.1.06.15-.41,1.52-2.2,3.53-3.6,4.49ZM861.24,187.51c1.06-2.64,13.46-6.7,18.98-7.6-4.1,3.75-14.2,9.27-18.98,7.6Z"/><path class="cls-1" d="M1028.1,156.34c1.12,0,1.38-.86,1.14-1.75.38-1.05-.66-2.92-2.03-2.92-1.12,0-1.38.86-1.14,1.75-.38,1.05.66,2.92,2.03,2.92Z"/><path class="cls-1" d="M252.6,163.03c1.87-1.62-6.23,5.52-8.03,7.51-6.2,6.85-20.11,17.82-29.4,9.59-8.04-7.13-4.16-23.53-1.72-32.42,1.2-4.39,3.53-13,5.74-16.72,1.26-2.12,6.29-6.29,8.3-8.51,4.95-5.46,10.36-12.19,13.9-18.63,1.75-3.19,3.95-9.87.73-12.68-2.73-2.39-4.5.14-6.19,2.16-4.1,4.93-8.58,11.51-11.32,17.27-2.46,5.17-4.28,11.34-7.1,16.27-.53.92-2.94,3-3.85,3.8-20.37,17.95-44.15,35.26-69.51,45.66-11.06,4.54-29.05,11.53-40.97,9.09-3.4-.7-8.81-5.06-10.31-8.21-.95-2.01-1.38-5.3-1.64-7.54-.11-.95-.71-4.73-.03-5.19.33-.22,3.04-.49,3.75-.64,6.91-1.53,15.61-4.84,22.37-7.3,28.56-10.38,60.06-24.77,84-43.25,8.54-6.59,18.06-14.55,24.49-23.22,1.32-1.78,6.04-8.8,6.42-10.53.97-4.49-.9-13.89-4.19-17.33-4.43-4.63-12.07-7.98-18.49-8.22-19.56-.75-43.93,11.63-59,23.2-8.54,6.56-17.67,14.24-25.38,21.7-7.44,7.19-15.31,17.92-21.35,26.52-4.35,6.19-9.66,14.18-13.24,20.82-2.58,4.78-3.22,10.3-3.84,15.62-12.31,1.03-24.66,4.38-36.99,1.2-8.45-2.18-21-8.19-24.2-16.8-.73-1.97-2.66-8.99-2.57-10.85.04-.85.93-2.48-.53-2.84-1.77-.44-1.85,3.41-1.79,4.56.38,8.55,3.46,15.34,10.47,20.42,10.01,7.26,21.38,10.32,33.73,9.98,7.32-.2,14.51-1.85,21.78-2.5.63,5.05.59,11.14,3.65,15.45,7.76,10.94,19.43,10.53,31.38,7.97,19-4.09,39.97-14.77,56.24-25.11,11.37-7.23,20.94-15.04,31.22-23.57,1.44-1.2,2.7-2.6,4.3-3.6-1.54,4.75-3.23,9.48-4.54,14.31-2.66,9.86-5.29,22.11,1.51,30.95,7.54,9.8,20.35,5.86,28.28-1.06l3.17-2.62c1.97-2.4,6.44-4.79,8.26-7.04,1.26-1.55.77-6.15,2.47-7.63ZM226.31,114.51c2.48-5.86,6.17-11.81,10.17-16.78.38-.48,2.86-3.43,3.09-3.54.38-.19.43.05.62.28-.28,1.53-.15,3.33-.47,4.81-.99,4.65-9.76,15.11-13.2,18.95l-2.6,2.55c.74-2.1,1.52-4.2,2.39-6.25ZM91.45,157.39c1.71-11.17,9.98-19.74,15.36-29.38,7.45-9.22,13.64-19.18,22.44-27.24,7.88-7.22,17.11-15,25.74-21.34,13.12-9.65,38.76-21.49,55.38-18.9,3.99.62,10.71,4.24,12.86,7.68,1.35,2.16,2.11,6.51,2.33,9.05.17,2.03.35,3.41-.71,5.2-2.9,4.88-6.45,9.42-10.35,13.55-2.03,2.16-4.29,4.28-6.5,6.27-28.17,25.34-66.8,43.02-102.81,54.88-4.63,1.52-9.14,3.61-14.08,4.04.18-1.25.17-2.55.36-3.8Z"/></svg>